<?xml version="1.0" encoding="UTF-8" ?>
<!DOCTYPE svg PUBLIC "-//W3C//DTD SVG 1.1//EN" "http://www.w3.org/Graphics/SVG/1.1/DTD/svg11.dtd">
<svg width="320pt" height="460pt" viewBox="0 0 320 460" version="1.1" xmlns="http://www.w3.org/2000/svg">
<path fill="#ffffff" d=" M 0.00 0.00 L 320.00 0.00 L 320.00 460.00 L 0.00 460.00 L 0.00 0.00 Z" />
<path fill="#242627" d=" M 131.59 147.14 C 134.69 144.29 138.69 141.89 143.07 142.34 C 145.28 142.54 147.90 143.60 148.40 146.03 C 148.16 147.79 146.73 148.85 145.39 149.81 C 142.87 147.99 140.35 145.17 136.91 145.70 C 134.49 146.44 132.69 148.59 132.00 150.97 C 130.52 155.73 130.36 160.76 130.20 165.71 C 133.25 165.78 136.30 165.78 139.36 165.78 C 139.52 166.87 139.67 167.97 139.82 169.06 C 136.65 169.24 133.47 169.02 130.30 169.05 C 130.31 176.42 129.88 183.82 130.59 191.16 C 132.52 192.25 135.57 192.18 136.67 194.31 C 133.15 195.05 129.55 194.24 126.00 194.51 C 123.79 194.44 121.32 195.21 119.41 193.73 C 121.40 192.37 125.26 192.31 124.95 189.10 C 125.22 182.38 124.99 175.66 125.03 168.94 C 120.38 168.96 115.72 168.86 111.07 169.08 C 110.88 175.72 110.88 182.37 111.00 189.01 C 110.79 192.30 115.03 192.24 117.03 193.79 C 115.27 195.12 112.96 194.56 110.93 194.55 C 107.45 194.34 103.97 194.70 100.50 194.45 C 102.23 192.67 105.88 192.16 105.68 189.13 C 105.91 182.63 105.72 176.13 105.75 169.63 C 104.31 169.17 102.88 168.70 101.46 168.22 C 102.79 167.20 104.20 166.29 105.63 165.40 C 106.16 160.18 106.80 154.56 110.49 150.50 C 115.35 144.28 125.20 141.67 131.59 147.14 Z" />
<path fill="#242627" d=" M 234.29 147.15 C 237.48 144.27 241.61 141.80 246.08 142.37 C 248.17 142.63 250.76 143.62 251.07 146.02 C 250.95 147.80 249.43 148.83 248.20 149.87 C 245.96 148.28 243.92 145.95 241.03 145.66 C 238.00 145.41 235.70 148.13 234.83 150.76 C 233.26 155.57 233.13 160.69 232.98 165.70 C 236.06 165.78 239.14 165.78 242.22 165.79 C 242.29 166.63 242.42 168.32 242.49 169.17 C 239.35 169.22 236.23 169.02 233.09 169.02 C 232.99 176.41 232.52 183.87 233.42 191.22 C 235.52 191.99 237.63 192.72 239.68 193.61 C 237.18 195.61 233.84 194.18 230.95 194.48 C 228.03 194.23 224.85 195.37 222.16 193.81 C 224.04 192.36 228.07 192.33 227.70 189.13 C 227.90 182.44 227.72 175.74 227.76 169.05 C 223.10 168.89 218.43 168.89 213.77 169.04 C 213.68 175.72 213.65 182.40 213.74 189.08 C 213.55 192.33 217.93 192.27 219.86 193.79 C 217.77 195.05 215.30 194.57 213.00 194.52 C 209.80 194.37 206.61 194.66 203.41 194.50 C 204.83 193.12 206.68 192.33 208.14 190.99 C 209.05 183.97 208.27 176.82 208.55 169.75 C 207.10 169.22 205.66 168.68 204.23 168.11 C 205.57 167.16 207.01 166.34 208.28 165.29 C 209.00 162.51 208.90 159.58 209.77 156.84 C 211.97 149.52 219.23 143.71 227.01 144.10 C 229.74 144.18 232.06 145.75 234.29 147.15 Z" />
<path fill="#242627" d=" M 35.87 145.80 C 39.18 144.64 42.51 143.56 45.73 142.15 C 45.08 151.19 44.67 160.25 44.71 169.32 C 48.33 166.36 52.99 163.56 57.83 165.18 C 61.92 166.04 64.04 170.22 64.31 174.08 C 64.65 179.73 64.44 185.40 64.87 191.05 C 66.23 192.64 68.49 192.95 70.24 193.98 C 65.20 195.37 59.77 194.40 54.62 194.09 C 56.00 192.81 58.92 192.51 58.88 190.16 C 59.18 184.76 59.22 179.31 58.81 173.91 C 58.79 170.47 55.11 168.44 52.02 168.65 C 49.21 168.70 44.99 169.38 44.88 172.96 C 44.66 179.00 44.14 185.10 44.94 191.13 C 46.38 192.21 48.06 192.93 49.59 193.89 C 44.38 195.09 38.84 194.37 33.52 194.46 C 35.75 192.59 39.57 191.66 39.08 187.98 C 39.74 175.01 40.18 161.96 39.44 148.98 C 38.24 147.93 37.04 146.88 35.87 145.80 Z" />
<path fill="#242627" d=" M 155.00 145.34 C 158.45 144.06 162.03 143.19 165.56 142.21 C 164.69 155.80 164.99 169.42 164.94 183.03 C 164.92 186.01 165.18 188.98 165.47 191.95 C 167.40 191.87 169.32 191.74 171.26 191.69 C 168.58 195.23 163.44 194.46 159.65 196.05 C 159.59 194.56 159.54 193.07 159.50 191.58 C 154.97 195.01 148.53 196.66 143.37 193.61 C 135.09 188.87 134.74 175.87 141.66 169.76 C 146.42 165.15 153.33 164.46 159.63 164.77 C 159.78 159.44 160.14 154.01 159.36 148.73 C 158.03 147.44 156.45 146.47 155.00 145.34 Z" />
<path fill="#ffffff" d=" M 116.18 148.04 C 120.20 145.40 125.04 148.09 128.31 150.72 C 126.12 155.45 125.07 160.60 124.89 165.81 C 120.24 165.73 115.59 165.83 110.94 165.70 C 111.39 159.69 110.69 152.05 116.18 148.04 Z" />
<path fill="#ffffff" d=" M 217.41 149.38 C 220.95 145.10 227.89 147.16 230.84 151.03 C 228.99 155.76 227.72 160.69 227.64 165.80 C 222.99 165.75 218.35 165.79 213.71 165.76 C 214.05 160.25 213.55 153.83 217.41 149.38 Z" />
<path fill="#242627" d=" M 65.95 165.65 C 71.05 165.35 76.20 165.20 81.29 165.64 C 79.70 166.61 77.96 167.30 76.41 168.33 C 75.59 171.11 76.05 174.08 75.92 176.94 C 75.99 181.45 75.44 186.65 78.63 190.31 C 81.55 192.82 86.14 193.33 89.53 191.48 C 92.67 189.40 92.91 185.26 93.18 181.88 C 93.33 177.58 93.53 173.25 93.08 168.97 C 92.02 167.10 89.45 166.95 87.76 165.86 C 92.20 165.16 96.86 165.20 101.30 165.86 C 99.77 166.79 97.94 167.30 96.62 168.54 C 95.04 175.22 96.74 182.44 94.11 188.92 C 90.67 197.75 75.59 197.79 72.24 188.90 C 69.93 182.28 71.96 175.12 70.52 168.37 C 69.07 167.34 67.45 166.59 65.95 165.65 Z" />
<path fill="#242627" d=" M 168.55 165.51 C 173.52 165.81 178.75 164.55 183.55 166.03 C 182.02 166.75 180.43 167.35 178.95 168.15 C 178.11 170.66 178.56 173.36 178.45 175.96 C 178.56 180.67 177.75 186.03 180.86 190.01 C 183.63 192.70 188.22 193.33 191.67 191.65 C 194.18 190.40 195.03 187.44 195.40 184.87 C 195.91 179.88 195.90 174.84 195.67 169.84 C 195.65 167.13 192.08 167.19 190.44 165.93 C 194.69 164.84 199.21 165.71 203.56 165.48 C 202.08 166.71 200.23 167.47 198.94 168.91 C 197.79 175.43 199.07 182.34 196.73 188.66 C 193.43 197.87 177.74 197.86 174.60 188.56 C 172.54 182.19 174.28 175.40 173.15 168.92 C 172.15 167.30 170.00 166.74 168.55 165.51 Z" />
<path fill="#242627" d=" M 243.79 169.86 C 247.85 165.05 255.73 162.86 261.02 166.97 C 263.06 168.82 264.93 171.95 263.84 174.72 C 257.63 175.31 251.38 174.64 245.17 175.11 C 244.33 180.71 246.39 187.55 252.04 189.81 C 256.44 191.72 261.48 190.30 264.48 186.65 C 263.70 194.50 253.27 197.19 247.09 193.86 C 238.53 189.46 237.58 176.64 243.79 169.86 Z" />
<path fill="#242627" d=" M 263.01 165.41 C 269.33 165.01 275.74 164.35 282.06 165.09 C 286.27 165.45 290.23 169.56 289.02 173.93 C 288.50 176.92 285.60 178.43 283.27 179.87 C 286.66 185.67 290.36 192.11 297.24 194.17 C 294.36 195.46 290.91 195.73 288.15 194.03 C 283.70 191.31 281.75 186.24 278.64 182.31 C 277.45 180.78 275.26 180.95 273.57 180.49 C 273.43 183.99 273.47 187.52 273.86 191.01 C 274.83 192.60 276.94 192.93 278.38 193.99 C 276.32 194.82 274.09 194.64 271.92 194.57 C 268.81 194.44 265.65 195.36 262.61 194.36 C 264.44 192.90 268.23 192.81 268.39 189.90 C 268.81 183.26 268.90 176.60 268.71 169.96 C 268.92 166.81 264.90 166.93 263.01 165.41 Z" />
<path fill="#ffffff" d=" M 149.32 167.53 C 153.18 166.34 158.05 168.58 159.41 172.43 C 159.97 177.55 160.03 182.80 159.41 187.92 C 158.92 191.65 154.13 192.20 151.13 191.59 C 141.06 188.71 139.40 171.59 149.32 167.53 Z" />
<path fill="#ffffff" d=" M 245.61 172.89 C 247.04 169.46 250.05 166.24 254.10 166.67 C 256.73 166.77 260.01 170.40 257.91 172.71 C 253.85 173.43 249.69 173.00 245.61 172.89 Z" />
<path fill="#ffffff" d=" M 273.80 166.81 C 276.01 166.75 278.37 166.48 280.42 167.51 C 283.56 168.83 285.19 173.10 283.17 176.00 C 281.26 179.50 276.76 178.68 273.46 179.20 C 273.46 175.07 273.72 170.94 273.80 166.81 Z" />
<path fill="#242627" d=" M 203.03 231.72 C 211.01 231.06 219.02 231.25 227.01 231.35 C 240.05 232.20 252.95 234.57 265.71 237.31 C 274.50 238.42 283.64 237.86 292.10 240.88 C 294.27 241.43 293.92 244.05 294.63 245.74 C 293.61 248.04 292.04 250.11 289.44 250.65 C 282.82 252.83 275.72 252.34 268.87 252.20 C 265.56 251.17 265.61 246.92 263.84 244.44 C 263.70 246.78 264.75 248.89 265.67 250.97 C 257.98 252.30 250.14 252.39 242.38 251.55 C 242.83 250.80 243.27 250.04 243.70 249.28 C 243.06 249.18 241.78 248.98 241.14 248.88 L 243.12 249.97 C 242.19 250.48 241.25 250.97 240.30 251.44 C 237.78 248.94 236.90 245.44 235.17 242.44 C 235.58 245.06 236.47 247.56 237.45 250.01 C 235.83 250.36 233.99 251.67 232.46 250.42 C 227.34 246.95 223.65 240.98 217.12 239.98 C 207.65 238.36 198.11 236.55 189.23 232.78 C 193.74 231.56 198.43 232.11 203.03 231.72 Z" />
<path fill="#242627" d=" M 137.02 239.72 C 149.16 236.66 161.70 235.23 173.55 231.01 L 173.33 233.03 C 173.45 232.60 173.68 231.74 173.79 231.31 C 179.00 230.82 184.17 231.93 188.97 233.92 C 195.73 236.70 202.85 238.48 210.02 239.89 C 214.66 240.83 219.83 240.98 223.65 244.14 C 227.26 247.16 230.63 250.49 234.48 253.22 C 233.55 254.56 232.69 255.95 231.82 257.33 C 232.89 258.50 234.04 259.59 235.23 260.65 C 237.32 261.18 239.40 261.75 241.49 262.31 C 240.95 261.90 239.88 261.09 239.34 260.69 C 239.38 260.10 239.48 258.91 239.53 258.32 C 239.23 258.99 238.64 260.32 238.34 260.99 C 236.74 260.01 234.98 259.26 233.61 257.97 C 233.71 256.37 234.27 254.86 234.68 253.33 C 239.02 255.83 244.28 256.81 248.13 260.07 C 248.36 260.73 248.84 262.04 249.07 262.69 C 246.87 262.56 244.67 262.34 242.47 262.27 C 244.29 263.50 246.44 263.66 248.58 263.40 C 247.03 266.22 244.38 268.32 241.16 268.79 C 232.71 269.68 224.92 265.41 218.05 260.98 C 216.49 259.95 215.20 258.19 213.17 258.13 C 206.82 257.54 200.61 255.84 194.22 255.57 C 190.46 254.74 185.47 254.57 183.52 250.66 C 182.33 248.73 181.40 246.67 180.16 244.78 C 180.34 248.40 183.10 250.99 184.44 254.17 C 188.19 255.52 192.24 256.02 195.75 258.02 C 200.56 260.69 206.05 262.76 209.51 267.26 C 209.46 266.69 209.35 265.55 209.29 264.98 C 212.08 264.97 214.85 264.77 217.64 264.65 C 217.54 264.27 217.35 263.50 217.26 263.11 C 214.20 263.32 211.15 263.80 208.08 263.61 C 204.12 261.46 200.25 259.11 196.28 256.97 C 200.34 256.58 204.00 258.67 207.99 258.89 C 210.71 259.52 213.95 258.41 216.10 260.65 C 222.53 265.75 230.27 270.63 238.83 269.71 C 238.72 273.14 237.66 276.75 235.21 279.24 C 228.82 281.80 221.77 281.73 214.99 282.34 C 209.19 282.85 203.48 281.37 198.19 279.10 C 195.74 277.15 193.16 275.35 190.37 273.93 C 193.47 271.79 196.39 268.55 196.00 264.51 C 192.69 261.75 188.52 260.19 185.46 257.12 L 187.64 255.66 C 183.03 257.03 179.88 261.52 179.02 266.13 C 180.37 267.45 181.37 269.67 183.73 269.18 C 178.23 271.23 172.32 275.48 172.79 282.10 C 174.27 283.16 175.73 284.25 177.14 285.42 C 175.35 286.55 173.17 287.15 171.71 288.77 C 170.24 290.35 169.91 292.57 169.20 294.54 C 170.74 296.68 172.49 298.69 174.66 300.22 C 180.73 304.45 185.50 310.40 192.23 313.73 C 187.88 314.43 183.41 314.91 179.08 313.80 C 178.36 312.75 176.95 311.58 177.13 313.80 C 173.06 314.00 169.04 313.21 164.99 313.01 C 156.35 311.74 147.55 313.32 138.92 311.87 C 131.67 310.84 124.18 309.83 117.66 306.25 C 113.64 304.03 112.09 299.37 111.09 295.18 C 110.52 292.85 110.81 290.24 109.26 288.25 C 108.91 293.08 110.54 297.80 112.59 302.10 C 110.57 302.21 108.55 302.36 106.54 302.53 C 106.83 307.98 105.59 313.32 104.75 318.67 L 103.64 318.49 C 103.60 317.85 103.53 316.57 103.49 315.93 C 103.28 316.10 102.87 316.45 102.67 316.62 L 102.33 316.62 C 102.37 316.00 102.43 314.75 102.47 314.13 C 103.01 314.30 104.09 314.64 104.64 314.81 C 104.62 313.41 104.61 312.01 104.60 310.62 C 102.42 310.99 102.15 309.37 102.18 307.59 L 101.35 307.71 C 101.36 307.00 101.37 305.59 101.38 304.89 C 100.82 305.47 99.71 306.63 99.16 307.21 C 99.33 306.51 99.68 305.12 99.85 304.42 L 98.40 304.68 C 98.42 304.27 98.44 303.46 98.45 303.05 L 96.88 303.06 C 96.80 303.94 96.64 305.68 96.56 306.56 C 97.25 307.25 97.93 307.95 98.62 308.66 C 99.42 308.49 100.23 308.33 101.03 308.16 C 100.84 308.76 100.45 309.96 100.26 310.56 L 101.69 310.40 C 101.59 311.86 101.48 313.33 101.35 314.79 C 100.82 313.62 100.38 312.41 99.95 311.21 C 99.37 310.49 98.21 309.05 97.63 308.33 C 97.48 309.42 97.19 311.59 97.04 312.68 C 97.57 312.56 98.63 312.33 99.16 312.21 C 98.69 313.48 98.21 314.75 97.73 316.02 L 99.12 315.98 L 99.45 313.56 C 99.75 314.14 100.34 315.30 100.64 315.88 C 100.10 316.56 99.03 317.92 98.49 318.60 C 99.24 318.26 100.72 317.58 101.47 317.24 L 99.90 320.09 L 101.44 319.37 C 101.73 319.86 102.30 320.84 102.59 321.33 C 102.57 320.28 102.52 318.20 102.49 317.16 C 104.09 318.82 104.02 320.65 102.74 322.31 C 98.70 323.06 94.60 323.10 90.54 322.50 C 82.99 321.80 75.66 324.67 68.10 323.86 C 61.75 323.24 55.26 324.81 49.04 322.96 C 45.76 322.12 42.37 321.96 39.07 321.26 C 40.27 320.70 41.53 320.51 42.85 320.67 C 42.45 319.19 42.05 317.66 41.99 316.12 C 43.07 317.81 43.89 319.65 44.83 321.42 C 44.43 318.94 43.88 316.47 43.42 314.01 C 44.05 315.10 45.32 317.30 45.95 318.40 C 46.98 317.35 47.91 316.19 48.19 314.71 C 47.69 315.34 46.69 316.62 46.19 317.25 C 45.42 312.89 43.19 308.96 42.37 304.62 C 43.34 305.93 43.97 307.41 44.28 309.05 C 45.81 306.26 43.85 303.27 43.42 300.49 C 43.85 301.33 44.70 303.01 45.13 303.85 C 45.29 303.83 45.62 303.78 45.78 303.75 C 45.96 303.35 46.34 302.54 46.52 302.14 C 46.69 302.80 47.03 304.13 47.20 304.80 L 47.91 303.09 C 48.67 303.23 49.42 303.37 50.18 303.53 C 50.11 303.35 49.97 303.00 49.91 302.82 C 50.85 301.50 49.10 300.73 48.72 299.60 C 49.18 298.89 50.10 297.46 50.57 296.75 C 49.77 297.19 48.19 298.07 47.39 298.50 C 47.76 297.17 48.51 294.50 48.88 293.16 C 47.59 294.87 46.41 296.66 45.33 298.53 C 45.80 296.52 46.36 294.52 47.69 292.91 C 47.46 292.41 46.98 291.40 46.74 290.90 C 46.42 291.71 45.77 293.34 45.45 294.16 C 45.41 293.17 45.33 291.19 45.28 290.20 C 45.89 290.37 47.11 290.70 47.72 290.87 C 46.22 287.62 45.92 284.02 45.03 280.59 C 45.33 281.06 45.91 282.02 46.21 282.50 C 47.41 283.20 48.74 283.62 50.14 283.73 C 50.45 285.81 50.70 287.89 51.02 289.97 C 51.64 291.77 51.80 293.67 52.02 295.56 L 48.98 295.51 C 50.17 296.39 51.48 296.72 52.93 296.50 C 53.58 299.83 54.58 303.07 55.51 306.33 C 54.73 306.32 53.16 306.28 52.38 306.27 C 54.56 306.41 56.16 307.65 57.49 309.26 C 57.55 310.66 57.64 312.05 57.70 313.46 C 58.43 313.59 59.89 313.86 60.63 313.99 C 60.14 313.63 59.18 312.90 58.69 312.54 C 58.28 306.54 55.59 301.02 54.73 295.11 C 54.05 289.96 52.68 284.81 53.39 279.59 C 54.19 281.52 54.29 283.60 54.59 285.64 C 54.75 284.78 55.08 283.04 55.24 282.17 C 55.67 282.73 56.52 283.85 56.94 284.40 C 57.58 279.39 57.34 274.33 57.59 269.29 C 58.94 274.19 58.23 279.29 57.54 284.23 C 58.02 284.14 58.98 283.96 59.46 283.87 C 59.44 281.42 59.38 278.98 59.09 276.55 C 59.40 276.41 60.02 276.14 60.33 276.00 C 60.32 278.65 60.25 281.32 59.82 283.95 C 60.26 283.95 61.15 283.94 61.59 283.94 C 61.42 276.28 60.47 268.57 61.49 260.94 C 61.88 270.80 62.00 280.69 62.88 290.54 L 62.05 290.60 C 62.04 288.83 62.04 287.07 62.06 285.31 L 60.51 285.29 C 60.59 287.27 62.88 291.20 59.33 290.82 C 60.21 289.02 60.38 287.18 59.83 285.31 C 59.52 285.35 58.92 285.42 58.62 285.46 C 60.03 287.49 59.90 288.96 58.22 289.84 C 58.07 289.16 57.75 287.81 57.60 287.13 L 56.28 286.33 C 56.19 288.67 59.21 291.64 56.79 293.52 C 58.71 292.32 61.34 291.27 63.22 293.21 C 63.26 292.49 63.33 291.07 63.36 290.35 L 64.35 290.73 C 64.38 289.62 64.44 287.40 64.47 286.29 C 65.49 289.38 65.85 292.65 65.80 295.89 C 66.19 295.75 66.96 295.46 67.35 295.32 C 68.26 297.13 70.01 297.43 71.86 297.41 C 71.45 299.39 71.05 301.37 70.96 303.40 C 74.26 299.91 71.68 294.67 73.35 290.52 C 73.67 293.66 73.74 296.82 73.86 299.97 C 76.34 305.52 77.04 311.69 79.62 317.20 C 78.64 318.28 77.72 319.42 76.86 320.60 L 76.76 317.79 L 75.61 317.88 C 76.12 319.20 76.59 320.56 77.06 321.91 C 77.79 320.85 78.37 319.33 79.85 319.21 C 79.85 320.20 79.63 321.15 79.20 322.07 C 80.02 321.68 80.82 321.28 81.63 320.87 C 79.95 317.82 79.57 314.30 78.54 311.02 C 75.62 301.76 74.32 292.02 75.59 282.36 C 75.68 282.44 75.88 282.60 75.97 282.68 C 76.55 283.61 77.15 284.54 77.76 285.46 C 77.65 285.72 77.45 286.24 77.34 286.50 C 78.98 287.83 78.28 289.73 77.21 291.15 C 77.80 290.85 78.97 290.25 79.56 289.95 C 79.55 291.40 79.54 292.87 79.47 294.33 L 80.84 293.09 C 81.23 295.25 81.49 297.43 81.87 299.60 C 82.53 295.89 82.62 292.08 83.94 288.51 C 84.68 292.14 83.59 295.86 82.57 299.34 C 82.06 299.66 81.04 300.30 80.54 300.62 C 81.41 300.56 83.15 300.45 84.02 300.40 C 83.66 300.91 82.96 301.94 82.61 302.45 C 82.65 303.21 82.69 303.98 82.71 304.75 C 83.50 304.71 84.29 304.67 85.08 304.64 C 85.79 303.05 86.60 301.51 87.49 300.03 C 87.72 296.25 86.24 292.46 87.23 288.75 C 87.55 291.49 87.67 294.32 89.08 296.79 C 89.46 294.43 89.35 292.05 89.40 289.68 C 89.91 291.42 90.33 293.17 90.82 294.92 C 93.06 289.87 91.72 284.34 92.23 279.04 C 92.51 275.37 92.03 271.66 92.76 268.03 C 92.57 266.31 92.45 264.58 92.36 262.85 C 94.21 262.98 94.95 262.05 94.58 260.06 C 93.94 260.25 92.66 260.64 92.02 260.83 C 92.18 260.33 92.50 259.34 92.65 258.85 C 92.04 258.35 90.80 257.35 90.18 256.85 C 90.29 259.84 93.63 264.40 89.45 265.81 C 89.64 267.68 89.85 269.56 89.88 271.46 C 89.00 270.40 90.15 266.42 88.16 267.22 C 87.81 268.53 87.56 269.86 87.41 271.23 C 86.99 269.39 86.56 267.57 86.12 265.75 C 85.73 265.96 84.94 266.38 84.55 266.59 C 85.67 268.34 85.85 270.43 86.01 272.45 C 85.31 271.10 84.68 269.71 84.02 268.34 C 83.89 271.16 84.27 274.09 83.29 276.81 C 82.56 272.71 84.84 266.67 80.75 264.04 C 80.18 262.39 79.58 260.74 79.08 259.07 L 77.50 259.63 C 78.18 261.60 78.81 263.60 78.89 265.71 C 78.07 264.42 77.42 263.04 76.83 261.64 C 76.48 262.22 75.78 263.38 75.43 263.96 C 76.23 265.17 76.73 266.54 77.23 267.89 C 76.57 267.63 75.25 267.12 74.58 266.86 C 74.82 269.98 74.92 273.13 74.43 276.24 C 73.73 273.52 73.62 270.71 73.59 267.92 C 75.14 265.49 73.98 262.65 74.18 260.00 C 74.76 252.42 78.16 245.48 80.14 238.23 C 78.82 239.01 77.94 240.21 77.55 241.68 C 75.89 246.41 74.45 251.21 72.89 255.98 C 72.76 257.70 72.69 259.49 71.85 261.06 C 71.75 264.92 71.76 268.79 71.64 272.66 L 71.32 272.71 C 71.61 267.00 70.72 261.36 70.22 255.71 C 70.60 256.84 71.36 259.11 71.73 260.24 C 71.94 258.50 71.82 256.77 71.59 255.05 C 73.27 254.36 72.53 252.44 72.79 251.07 L 71.59 251.07 C 71.65 251.79 71.78 253.25 71.84 253.98 L 71.08 253.89 C 71.15 253.30 71.30 252.12 71.37 251.52 L 69.46 251.21 L 69.99 253.83 C 69.41 253.11 68.25 251.68 67.67 250.97 L 68.05 252.58 C 70.13 257.25 67.02 252.43 65.52 253.68 C 64.02 252.50 66.60 251.75 67.49 251.50 C 66.89 251.06 65.69 250.20 65.09 249.77 C 64.59 251.00 64.14 252.25 63.75 253.53 C 63.11 253.17 61.85 252.44 61.22 252.08 C 61.80 252.58 62.97 253.59 63.55 254.10 C 62.68 254.73 61.78 255.34 60.90 255.96 C 61.34 255.82 62.22 255.54 62.66 255.40 L 63.40 257.66 C 61.88 257.53 60.35 257.43 58.82 257.37 C 59.53 258.57 60.24 259.77 60.96 260.98 C 60.23 260.74 58.76 260.27 58.02 260.03 L 58.02 260.91 C 58.47 260.95 59.38 261.03 59.83 261.07 C 59.74 262.56 59.70 264.07 59.56 265.57 C 59.35 264.48 58.93 262.32 58.72 261.24 C 58.17 263.42 57.85 265.66 57.20 267.82 C 57.19 265.28 57.38 262.74 57.41 260.21 C 56.85 260.65 55.75 261.54 55.20 261.98 C 58.80 255.31 62.53 248.71 66.69 242.35 L 66.36 241.83 C 67.23 241.00 68.10 240.16 68.92 239.27 L 69.94 238.97 C 69.87 238.50 69.75 237.56 69.68 237.09 C 80.46 237.22 91.18 238.40 101.96 238.36 C 106.88 239.30 107.94 245.23 107.96 249.43 C 110.31 249.14 112.64 248.80 114.98 248.43 C 113.53 250.44 112.31 252.65 111.96 255.14 C 114.50 251.64 115.83 247.03 119.72 244.71 C 124.93 241.52 131.12 240.76 137.02 239.72 Z" />
<path fill="#242627" d=" M 43.10 235.58 C 46.38 235.47 49.67 235.40 52.91 234.86 C 52.86 235.09 52.75 235.55 52.69 235.78 C 52.36 236.12 51.69 236.80 51.35 237.14 C 51.89 237.15 52.97 237.15 53.51 237.15 C 53.67 236.67 53.97 235.71 54.13 235.23 C 54.87 235.02 56.36 234.61 57.10 234.41 C 57.19 235.60 57.29 236.78 57.40 237.97 C 56.67 237.35 55.22 236.11 54.50 235.49 C 54.96 236.37 55.88 238.14 56.34 239.02 C 55.40 238.77 53.52 238.26 52.58 238.01 C 51.85 240.75 55.60 238.86 56.87 239.37 L 56.83 240.37 C 56.15 240.78 54.80 241.60 54.12 242.01 L 56.92 241.34 C 57.47 241.91 58.02 242.49 58.57 243.08 C 57.87 243.48 56.48 244.30 55.79 244.71 C 54.44 242.42 52.72 240.41 50.52 238.89 C 51.09 240.10 51.68 241.30 52.28 242.50 C 54.83 241.24 54.18 245.41 54.73 246.87 C 54.11 247.20 52.87 247.86 52.25 248.19 C 52.27 248.61 52.31 249.44 52.33 249.85 C 51.84 249.76 50.88 249.57 50.39 249.48 L 49.74 248.94 L 49.03 248.23 C 50.99 247.43 53.55 247.44 53.96 244.52 L 50.69 246.15 C 51.19 245.22 51.68 244.29 52.19 243.37 L 49.85 241.43 L 50.92 243.82 C 49.87 245.05 48.84 246.30 47.67 247.42 C 48.41 246.04 49.20 244.69 50.07 243.38 C 49.08 243.47 47.09 243.65 46.10 243.74 L 45.36 243.87 C 47.24 245.49 46.28 247.59 45.68 249.49 C 45.88 246.98 45.24 244.61 44.09 242.41 C 43.08 242.39 41.05 242.36 40.04 242.35 L 40.94 244.11 L 39.52 244.79 C 39.61 242.75 39.51 240.59 40.81 238.86 L 40.19 241.80 C 40.88 241.77 42.27 241.71 42.96 241.68 C 42.75 241.31 42.32 240.58 42.10 240.22 C 42.83 240.31 44.28 240.48 45.01 240.57 L 44.58 240.99 L 44.25 241.39 C 44.42 241.55 44.75 241.87 44.92 242.04 C 45.76 241.24 46.45 240.31 46.99 239.24 L 46.19 241.85 C 47.21 241.66 49.23 241.28 50.25 241.09 L 50.54 239.46 L 48.97 240.04 L 49.83 238.30 C 49.05 238.40 47.48 238.59 46.70 238.68 C 47.43 238.08 48.89 236.89 49.63 236.29 C 48.71 236.36 47.79 236.43 46.87 236.51 C 46.47 237.78 45.93 239.00 45.27 240.16 C 45.53 239.09 46.04 236.95 46.30 235.89 C 45.69 236.46 44.48 237.61 43.87 238.19 C 43.68 237.53 43.30 236.23 43.10 235.58 Z" />
<path fill="#242627" d=" M 58.09 237.84 C 58.10 236.78 58.10 235.74 58.10 234.69 C 61.67 236.70 65.88 236.61 69.83 236.89 C 67.76 239.07 65.72 241.32 64.22 243.95 L 63.18 244.02 C 63.22 244.38 63.29 245.12 63.32 245.49 C 60.36 247.33 60.13 252.45 56.29 252.64 C 56.36 252.90 56.51 253.41 56.58 253.67 C 55.05 255.55 53.83 257.65 52.50 259.67 C 52.61 260.19 52.82 261.23 52.93 261.75 L 51.44 261.11 C 51.03 261.80 50.21 263.16 49.80 263.84 C 50.17 261.40 50.17 258.89 50.78 256.50 C 52.02 253.56 53.73 250.84 55.41 248.14 C 56.05 249.18 56.69 250.23 57.41 251.23 C 57.46 249.62 57.52 248.01 56.88 246.51 C 59.37 243.56 61.82 240.58 64.37 237.69 C 61.98 238.28 60.76 240.53 59.40 242.35 C 58.55 240.73 57.66 239.06 56.20 237.89 C 57.08 238.07 58.86 238.43 59.74 238.61 C 59.77 238.24 59.83 237.49 59.86 237.12 L 58.09 237.84 Z" />
<path fill="#ffffff" d=" M 50.00 236.41 C 50.67 237.02 50.67 237.02 50.00 236.41 Z" />
<path fill="#ffffff" d=" M 51.21 238.16 C 51.85 238.75 51.85 238.75 51.21 238.16 Z" />
<path fill="#ffffff" d=" M 88.27 244.88 C 87.77 242.42 88.80 239.94 90.84 238.52 C 90.12 240.66 89.62 243.05 88.27 244.88 Z" />
<path fill="#ffffff" d=" M 87.22 240.30 C 87.83 240.87 87.83 240.87 87.22 240.30 Z" />
<path fill="#ffffff" d=" M 96.65 247.90 C 98.40 244.89 99.15 241.36 101.45 238.66 C 100.70 241.69 99.46 244.57 98.59 247.57 C 98.05 248.78 97.50 249.99 96.95 251.20 C 96.88 250.38 96.73 248.73 96.65 247.90 Z" />
<path fill="#ffffff" d=" M 102.36 239.81 C 103.41 238.94 105.10 240.55 104.75 241.69 C 103.72 242.29 101.83 241.03 102.36 239.81 Z" />
<path fill="#ffffff" d=" M 96.31 241.25 C 96.89 241.86 96.89 241.86 96.31 241.25 Z" />
<path fill="#ffffff" d=" M 47.08 242.53 C 47.78 243.01 47.78 243.01 47.08 242.53 Z" />
<path fill="#ffffff" d=" M 73.27 242.17 C 73.83 242.80 73.83 242.80 73.27 242.17 Z" />
<path fill="#ffffff" d=" M 86.61 242.31 C 87.00 243.05 87.00 243.05 86.61 242.31 Z" />
<path fill="#ffffff" d=" M 159.21 242.24 C 159.86 242.75 159.86 242.75 159.21 242.24 Z" />
<path fill="#ffffff" d=" M 105.24 243.27 C 108.59 243.42 103.82 246.30 105.24 243.27 Z" />
<path fill="#ffffff" d=" M 83.52 248.81 C 84.70 246.89 85.52 244.67 87.31 243.20 C 86.87 244.33 86.30 245.42 85.75 246.51 C 86.27 246.45 87.31 246.33 87.83 246.27 C 87.66 247.62 87.17 248.91 86.77 250.21 C 87.12 250.65 87.82 251.53 88.16 251.97 C 87.43 251.56 85.95 250.73 85.21 250.32 L 86.12 253.39 L 85.22 253.66 C 84.70 252.02 84.17 250.40 83.52 248.81 Z" />
<path fill="#ffffff" d=" M 96.11 246.04 C 94.85 245.26 94.79 244.47 95.93 243.67 C 97.13 244.47 97.20 245.25 96.11 246.04 Z" />
<path fill="#ffffff" d=" M 73.98 248.08 C 72.22 245.28 77.20 247.16 73.98 248.08 Z" />
<path fill="#ffffff" d=" M 94.16 244.81 C 96.37 248.68 97.51 253.41 95.98 257.74 C 95.89 258.72 95.69 260.70 95.59 261.69 C 94.76 260.49 94.46 259.17 94.71 257.73 C 92.18 258.60 91.47 256.29 91.27 254.18 C 92.43 255.15 93.77 256.11 95.37 255.93 C 95.66 254.33 95.80 252.71 95.98 251.10 L 94.54 251.84 C 94.48 249.49 94.28 247.15 94.16 244.81 Z" />
<path fill="#ffffff" d=" M 105.87 246.23 C 109.21 246.48 104.32 249.18 105.87 246.23 Z" />
<path fill="#ffffff" d=" M 73.98 248.08 C 75.54 250.95 70.60 248.65 73.98 248.08 Z" />
<path fill="#242627" d=" M 85.04 248.30 C 88.45 248.37 83.57 251.27 85.04 248.30 Z" />
<path fill="#ffffff" d=" M 82.18 249.46 L 83.05 249.60 C 84.61 251.70 80.86 251.33 82.18 249.46 Z" />
<path fill="#ffffff" d=" M 79.34 252.29 L 80.74 252.19 C 81.00 252.21 81.52 252.26 81.78 252.28 C 81.78 252.97 81.76 253.65 81.71 254.34 C 82.49 255.45 83.28 256.55 84.13 257.61 C 83.58 255.49 82.73 253.45 82.05 251.38 C 83.22 252.42 84.38 253.47 85.52 254.54 C 84.96 256.58 84.54 258.66 83.98 260.71 C 83.95 261.68 83.90 263.62 83.87 264.59 L 82.88 264.67 C 82.41 261.51 79.87 259.31 78.14 256.80 C 78.52 256.64 79.28 256.32 79.65 256.16 C 79.53 254.86 79.44 253.57 79.34 252.29 Z" />
<path fill="#ffffff" d=" M 94.01 253.09 C 94.66 253.72 94.66 253.72 94.01 253.09 Z" />
<path fill="#ffffff" d=" M 53.00 256.00 C 51.33 253.17 56.28 255.34 53.00 256.00 Z" />
<path fill="#242627" d=" M 64.08 255.16 L 64.74 255.15 C 64.80 255.51 64.90 256.23 64.95 256.60 L 63.98 256.62 C 64.01 256.26 64.06 255.52 64.08 255.16 Z" />
<path fill="#ffffff" d=" M 173.68 263.88 C 177.54 261.31 180.10 257.25 183.97 254.71 C 174.80 267.54 159.04 275.32 143.37 275.79 C 143.36 275.52 143.34 274.97 143.33 274.70 C 154.37 274.94 164.83 270.11 173.68 263.88 Z" />
<path fill="#ffffff" d=" M 53.00 256.00 C 54.96 258.69 49.84 256.96 53.00 256.00 Z" />
<path fill="#ffffff" d=" M 90.20 256.29 C 90.84 256.86 90.84 256.86 90.20 256.29 Z" />
<path fill="#242627" d=" M 82.05 259.77 C 80.98 259.38 80.43 256.97 81.83 256.76 C 82.82 257.21 83.50 259.56 82.05 259.77 Z" />
<path fill="#242627" d=" M 60.84 258.18 C 64.31 258.36 59.36 261.07 60.84 258.18 Z" />
<path fill="#242627" d=" M 184.54 258.30 C 184.73 258.66 185.12 259.38 185.31 259.74 C 189.29 259.71 192.13 263.27 195.42 265.13 C 194.54 267.79 193.10 270.20 191.59 272.54 C 190.03 272.26 188.48 271.92 186.96 271.47 C 187.16 270.71 187.32 269.94 187.45 269.17 C 186.76 267.79 185.44 269.00 184.51 269.37 C 183.01 268.10 180.45 267.35 180.43 265.01 C 180.85 262.32 182.55 260.06 184.54 258.30 Z" />
<path fill="#242627" d=" M 69.22 261.23 C 69.72 261.84 69.72 261.84 69.22 261.23 Z" />
<path fill="#ffffff" d=" M 89.31 261.44 C 90.68 261.43 90.74 263.85 89.85 264.55 C 88.38 264.62 88.47 262.16 89.31 261.44 Z" />
<path fill="#242627" d=" M 51.23 271.94 C 51.26 269.05 50.10 265.98 51.27 263.22 C 52.46 268.43 50.93 273.76 51.73 279.02 C 51.31 277.10 50.93 275.17 50.23 273.34 C 49.98 275.77 49.96 278.24 49.56 280.66 C 49.08 275.66 49.31 270.57 49.49 265.55 C 49.89 267.65 50.11 269.80 50.30 271.94 L 51.23 271.94 Z" />
<path fill="#ffffff" d=" M 93.74 263.48 L 95.29 263.41 C 93.35 277.57 94.63 291.95 94.75 306.17 C 94.50 305.98 94.02 305.60 93.77 305.40 C 93.50 301.90 94.38 298.19 92.63 294.94 C 92.55 289.57 93.54 284.24 93.22 278.86 C 92.83 273.71 93.98 268.63 93.74 263.48 Z" />
<path fill="#ffffff" d=" M 87.36 265.72 C 87.73 265.98 87.73 265.98 87.36 265.72 Z" />
<path fill="#242627" d=" M 59.19 274.87 C 59.23 271.73 58.89 268.55 59.50 265.45 C 59.90 268.58 59.71 271.74 59.80 274.89 L 59.19 274.87 Z" />
<path fill="#242627" d=" M 81.47 267.64 C 82.26 271.66 81.64 275.79 81.72 279.86 L 81.16 279.89 C 81.27 275.81 80.92 271.70 81.47 267.64 Z" />
<path fill="#242627" d=" M 179.08 272.14 C 181.23 271.99 183.50 271.97 185.32 270.66 C 190.32 274.80 195.77 278.38 201.48 281.46 C 206.01 283.69 211.17 283.03 216.04 283.09 C 221.83 283.07 227.59 282.43 233.28 281.45 C 232.78 286.32 232.31 293.10 226.80 294.89 C 220.49 297.19 213.70 297.57 207.07 298.12 C 203.48 298.36 199.60 298.60 196.41 296.61 C 190.36 293.09 184.94 288.59 178.89 285.06 C 177.10 283.97 174.94 283.03 174.17 280.91 C 173.47 277.45 176.57 275.07 178.52 272.69 C 180.49 273.81 182.47 274.95 184.61 275.73 C 183.11 274.07 181.00 273.21 179.08 272.14 Z" />
<path fill="#ffffff" d=" M 185.09 275.67 C 187.48 276.67 189.69 278.63 190.50 281.12 C 190.45 284.19 187.93 286.52 185.62 288.22 C 187.01 285.84 189.29 283.79 189.44 280.86 C 188.22 278.95 186.46 277.47 185.09 275.67 Z" />
<path fill="#242627" d=" M 54.97 277.14 C 56.27 277.65 56.51 281.55 55.10 281.98 C 54.48 280.51 54.49 278.63 54.97 277.14 Z" />
<path fill="#ffffff" d=" M 123.61 283.66 C 128.22 282.27 132.80 285.06 137.51 284.70 C 137.38 285.03 137.12 285.69 136.99 286.02 C 134.20 286.41 131.49 285.81 129.14 284.24 C 127.27 284.43 125.38 284.37 123.61 283.66 Z" />
<path fill="#ffffff" d=" M 47.63 284.79 C 50.28 282.84 50.26 289.04 47.41 287.92 C 47.10 286.87 47.18 285.82 47.63 284.79 Z" />
<path fill="#242627" d=" M 178.15 286.13 C 178.43 286.16 179.00 286.22 179.29 286.25 C 185.36 289.93 190.85 294.49 197.00 298.04 C 200.35 299.98 204.28 298.80 207.92 298.84 C 213.37 298.63 218.75 297.79 224.12 296.87 C 224.49 301.28 223.32 305.90 220.15 309.12 C 217.38 312.28 212.93 312.88 208.98 313.21 C 203.71 313.51 198.17 314.99 193.06 313.05 C 187.89 310.38 183.34 306.68 179.25 302.55 C 180.85 301.54 182.37 300.41 183.76 299.13 L 185.03 299.98 C 184.95 299.13 184.78 297.43 184.70 296.58 C 182.85 298.61 180.86 300.51 178.74 302.26 C 175.78 299.43 170.54 297.47 170.64 292.71 C 171.34 289.99 173.71 288.27 175.97 286.85 C 178.61 290.17 183.30 291.57 184.74 295.84 C 185.03 295.72 185.62 295.48 185.91 295.35 C 183.59 292.10 180.41 289.69 177.18 287.41 C 177.42 287.09 177.91 286.45 178.15 286.13 Z" />
<path fill="#242627" d=" M 80.23 291.76 C 80.40 290.06 80.56 288.37 80.82 286.69 C 81.44 288.36 81.68 290.12 81.88 291.88 C 81.47 291.85 80.64 291.79 80.23 291.76 Z" />
<path fill="#ffffff" d=" M 49.18 288.25 C 50.72 288.80 49.76 291.49 48.76 292.29 C 47.44 291.68 48.35 289.10 49.18 288.25 Z" />
<path fill="#ffffff" d=" M 55.23 288.26 C 55.83 288.87 55.83 288.87 55.23 288.26 Z" />
<path fill="#242627" d=" M 84.62 291.04 C 85.76 291.20 86.35 291.83 86.38 292.95 C 86.37 296.52 85.44 300.05 84.51 303.49 L 83.49 303.31 C 83.98 299.22 86.32 295.12 84.62 291.04 Z" />
<path fill="#ffffff" d=" M 49.88 292.17 C 53.21 292.31 48.28 295.20 49.88 292.17 Z" />
<path fill="#ffffff" d=" M 64.04 294.40 C 63.21 293.15 63.43 292.38 64.71 292.09 C 65.55 293.36 65.33 294.13 64.04 294.40 Z" />
<path fill="#ffffff" d=" M 60.17 293.25 C 60.80 293.84 60.80 293.84 60.17 293.25 Z" />
<path fill="#ffffff" d=" M 79.32 295.21 C 79.86 295.83 79.86 295.83 79.32 295.21 Z" />
<path fill="#ffffff" d=" M 90.27 295.48 C 91.93 296.34 91.30 300.48 90.10 301.52 C 89.46 299.67 89.43 297.26 90.27 295.48 Z" />
<path fill="#ffffff" d=" M 65.32 298.21 C 65.88 298.85 65.88 298.85 65.32 298.21 Z" />
<path fill="#ffffff" d=" M 66.35 297.24 L 68.56 297.50 C 67.97 299.50 66.95 301.79 68.26 303.75 C 69.82 303.59 69.14 300.36 68.40 299.70 L 69.11 298.24 C 69.29 298.23 69.65 298.19 69.83 298.18 C 70.38 299.76 70.32 301.48 70.50 303.14 C 71.01 303.49 72.03 304.18 72.54 304.53 C 72.74 303.56 73.13 301.62 73.32 300.65 C 74.03 302.83 73.34 305.05 73.08 307.23 C 72.58 306.48 71.58 304.98 71.08 304.23 C 71.38 306.69 71.77 309.15 72.05 311.63 C 71.71 311.03 71.03 309.83 70.69 309.23 C 69.40 309.79 68.11 310.36 66.82 310.93 C 66.45 309.38 66.98 307.77 66.43 306.24 L 68.25 305.30 C 67.62 304.81 66.99 304.32 66.37 303.83 C 67.25 301.71 66.48 299.41 66.35 297.24 Z" />
<path fill="#ffffff" d=" M 78.28 298.21 C 78.76 298.85 78.76 298.85 78.28 298.21 Z" />
<path fill="#ffffff" d=" M 63.26 299.65 C 63.84 300.30 63.84 300.30 63.26 299.65 Z" />
<path fill="#ffffff" d=" M 91.96 300.50 C 93.29 300.66 93.33 303.06 92.58 303.92 C 91.17 303.79 91.25 301.37 91.96 300.50 Z" />
<path fill="#ffffff" d=" M 88.26 301.31 C 91.74 301.42 86.66 304.22 88.26 301.31 Z" />
<path fill="#ffffff" d=" M 51.93 303.25 C 52.42 302.48 52.42 302.48 51.93 303.25 Z" />
<path fill="#ffffff" d=" M 51.01 303.26 L 51.93 303.25 L 52.31 304.12 L 51.79 304.65 C 51.49 304.50 50.88 304.21 50.58 304.06 L 51.01 303.26 Z" />
<path fill="#ffffff" d=" M 62.20 303.31 C 62.84 303.79 62.84 303.79 62.20 303.31 Z" />
<path fill="#ffffff" d=" M 102.81 302.76 L 104.73 302.71 C 104.67 303.19 104.54 304.16 104.47 304.64 L 105.96 304.39 C 105.75 306.52 105.11 308.55 103.92 310.35 C 103.77 309.38 103.48 307.45 103.34 306.49 L 102.51 306.52 C 102.59 305.58 102.74 303.70 102.81 302.76 Z" />
<path fill="#ffffff" d=" M 53.20 304.27 C 53.85 304.80 53.85 304.80 53.20 304.27 Z" />
<path fill="#ffffff" d=" M 87.16 304.34 C 87.86 304.94 87.86 304.94 87.16 304.34 Z" />
<path fill="#ffffff" d=" M 46.18 305.24 L 46.66 305.28 C 46.93 305.77 47.48 306.74 47.75 307.23 C 47.87 306.68 48.10 305.57 48.22 305.01 C 48.74 305.76 49.21 307.16 50.37 306.41 L 50.86 306.42 C 50.65 307.44 50.21 308.39 49.53 309.25 C 50.30 309.00 51.84 308.51 52.62 308.26 C 52.50 309.20 52.28 311.08 52.16 312.02 C 51.24 311.65 50.32 311.29 49.39 310.93 C 49.34 311.58 49.24 312.87 49.19 313.52 L 47.60 312.17 C 47.26 312.73 46.60 313.85 46.27 314.41 C 45.79 312.95 45.27 311.50 44.72 310.07 C 45.13 309.47 45.55 308.87 45.98 308.29 L 46.56 311.61 C 46.95 310.90 47.71 309.48 48.09 308.77 C 45.23 309.60 46.16 306.65 46.18 305.24 Z" />
<path fill="#242627" d=" M 69.08 305.27 C 72.05 305.48 67.68 308.18 69.08 305.27 Z" />
<path fill="#ffffff" d=" M 74.10 306.43 C 74.73 307.04 74.73 307.04 74.10 306.43 Z" />
<path fill="#ffffff" d=" M 85.05 306.08 C 85.67 306.19 86.90 306.40 87.52 306.51 C 87.52 307.21 87.53 308.62 87.53 309.33 C 88.60 307.42 89.71 305.53 90.86 303.67 C 90.51 306.63 89.47 309.45 88.89 312.38 C 88.72 311.62 88.37 310.11 88.20 309.36 C 87.87 309.37 87.23 309.40 86.90 309.42 C 86.29 308.29 85.67 307.19 85.05 306.08 Z" />
<path fill="#ffffff" d=" M 72.33 307.77 C 72.70 307.99 72.70 307.99 72.33 307.77 Z" />
<path fill="#ffffff" d=" M 54.23 308.19 C 54.83 308.77 54.83 308.77 54.23 308.19 Z" />
<path fill="#242627" d=" M 68.28 308.14 C 71.21 306.71 68.45 311.14 68.28 308.14 Z" />
<path fill="#ffffff" d=" M 89.19 314.92 C 90.76 312.48 90.23 309.44 91.22 306.79 C 91.35 308.23 91.60 311.12 91.73 312.56 C 92.55 311.17 93.41 309.81 94.32 308.49 C 93.94 309.88 93.44 311.26 92.81 312.58 C 92.57 314.00 92.32 315.45 91.60 316.73 L 91.56 312.97 C 90.96 313.46 89.78 314.44 89.19 314.92 Z" />
<path fill="#ffffff" d=" M 73.25 309.25 C 74.59 310.04 74.48 312.35 75.34 313.64 C 74.82 313.53 73.79 313.32 73.28 313.21 C 73.35 314.00 73.50 315.58 73.58 316.36 C 72.40 314.23 71.63 311.36 73.25 309.25 Z" />
<path fill="#ffffff" d=" M 95.08 308.83 C 96.57 311.61 96.67 315.11 97.83 318.12 C 98.72 319.46 99.59 320.83 100.29 322.30 C 99.41 321.48 98.56 320.66 97.72 319.81 C 96.71 319.46 95.74 319.06 94.76 318.64 C 95.59 316.86 95.91 314.90 96.01 312.96 C 95.62 313.72 94.84 315.23 94.45 315.99 L 94.17 315.86 C 94.57 313.53 94.62 311.15 95.08 308.83 Z" />
<path fill="#242627" d=" M 42.11 310.45 C 43.46 310.69 43.76 311.41 43.00 312.62 C 41.63 312.38 41.33 311.65 42.11 310.45 Z" />
<path fill="#ffffff" d=" M 49.07 314.46 C 49.71 315.07 49.71 315.07 49.07 314.46 Z" />
<path fill="#ffffff" d=" M 74.81 316.84 C 73.93 313.63 78.11 317.19 74.81 316.84 Z" />
<path fill="#242627" d=" M 39.28 316.24 C 40.66 316.12 41.70 318.58 41.05 319.73 C 39.48 320.00 38.93 317.40 39.28 316.24 Z" />
<path fill="#ffffff" d=" M 74.81 316.84 C 75.13 320.13 71.59 315.95 74.81 316.84 Z" />
<path fill="#ffffff" d=" M 48.17 318.21 C 48.78 318.83 48.78 318.83 48.17 318.21 Z" />
<path fill="#ffffff" d=" M 46.22 319.31 C 46.85 319.82 46.85 319.82 46.22 319.31 Z" />
<path fill="#ffffff" d=" M 93.33 320.16 C 93.66 320.89 93.66 320.89 93.33 320.16 Z" />
</svg>
