<?xml version="1.0" encoding="UTF-8" standalone="no"?>
<!-- Created with Inkscape (http://www.inkscape.org/) -->

<svg
   xmlns:dc="http://purl.org/dc/elements/1.1/"
   xmlns:cc="http://creativecommons.org/ns#"
   xmlns:rdf="http://www.w3.org/1999/02/22-rdf-syntax-ns#"
   xmlns:svg="http://www.w3.org/2000/svg"
   xmlns="http://www.w3.org/2000/svg"
   xmlns:sodipodi="http://sodipodi.sourceforge.net/DTD/sodipodi-0.dtd"
   xmlns:inkscape="http://www.inkscape.org/namespaces/inkscape"
   width="744.09448819"
   height="1052.3622047"
   id="svg3550"
   version="1.1"
   inkscape:version="0.48.4 r9939"
   sodipodi:docname="New document 5">
  <defs
     id="defs3552" />
  <sodipodi:namedview
     id="base"
     pagecolor="#ffffff"
     bordercolor="#666666"
     borderopacity="1.0"
     inkscape:pageopacity="0.0"
     inkscape:pageshadow="2"
     inkscape:zoom="0.98994949"
     inkscape:cx="275.22788"
     inkscape:cy="520"
     inkscape:document-units="px"
     inkscape:current-layer="layer1"
     showgrid="true"
     inkscape:window-width="1366"
     inkscape:window-height="718"
     inkscape:window-x="-8"
     inkscape:window-y="-8"
     inkscape:window-maximized="1"
     showguides="false">
    <inkscape:grid
       type="xygrid"
       id="grid3916" />
  </sodipodi:namedview>
  <metadata
     id="metadata3555">
    <rdf:RDF>
      <cc:Work
         rdf:about="">
        <dc:format>image/svg+xml</dc:format>
        <dc:type
           rdf:resource="http://purl.org/dc/dcmitype/StillImage" />
        <dc:title></dc:title>
      </cc:Work>
    </rdf:RDF>
  </metadata>
  <g
     inkscape:label="Layer 1"
     inkscape:groupmode="layer"
     id="layer1">
    <path
       d="m 93.954391,240.59301 399.999999,0 0,575 -399.999999,0 z"
       id="path3195"
       inkscape:connector-curvature="0"
       style="fill:#ffffff"
       sodipodi:nodetypes="ccccc" />
    <path
       d="m 347.74189,530.24301 c 9.975,-0.825 19.9875,-0.5875 29.975,-0.4625 16.3,1.0625 32.425,4.025 48.375,7.45 10.9875,1.3875 22.4125,0.6875 32.9875,4.4625 2.7125,0.6875 2.275,3.9625 3.1625,6.075 -1.275,2.875 -3.2375,5.4625 -6.4875,6.1375 -8.275,2.725 -17.15,2.1125 -25.7125,1.9375 -4.1375,-1.2875 -4.075,-6.6 -6.2875,-9.7 -0.175,2.925 1.1375,5.5625 2.2875,8.1625 -9.6125,1.6625 -19.4125,1.775 -29.1125,0.725 0.5625,-0.9375 1.1125,-1.8875 1.65,-2.8375 -0.8,-0.125 -2.4,-0.375 -3.2,-0.5 l 2.475,1.3625 c -1.1625,0.6375 -2.3375,1.25 -3.525,1.8375 -3.15,-3.125 -4.25,-7.5 -6.4125,-11.25 0.5125,3.275 1.625,6.4 2.85,9.4625 -2.025,0.4375 -4.325,2.075 -6.2375,0.5125 -6.4,-4.3375 -11.0125,-11.8 -19.175,-13.05 -11.8375,-2.025 -23.7625,-4.2875 -34.8625,-9 5.6375,-1.525 11.5,-0.8375 17.25,-1.325 z"
       id="path3223"
       inkscape:connector-curvature="0"
       style="fill:#242627"
       sodipodi:nodetypes="cccccccccccccccccccc" />
    <path
       d="m 265.22939,540.24301 c 15.175,-3.825 30.85,-5.6125 45.6625,-10.8875 l -0.275,2.525 c 0.15,-0.5375 0.4375,-1.6125 0.575,-2.15 6.5125,-0.6125 12.975,0.775 18.975,3.2625 8.45,3.475 17.35,5.7 26.3125,7.4625 5.8,1.175 12.2625,1.3625 17.0375,5.3125 4.5125,3.775 8.725,7.9375 13.5375,11.35 -1.1625,1.675 -2.2375,3.4125 -3.325,5.1375 1.3375,1.4625 2.775,2.825 4.2625,4.15 2.6125,0.6625 5.2125,1.375 7.825,2.075 -0.675,-0.5125 -2.0125,-1.525 -2.6875,-2.025 0.05,-0.7375 0.175,-2.225 0.2375,-2.9625 -0.375,0.8375 -1.1125,2.5 -1.4875,3.3375 -2,-1.225 -4.2,-2.1625 -5.9125,-3.775 0.125,-2 0.825,-3.8875 1.3375,-5.8 5.425,3.125 12,4.35 16.8125,8.425 0.2875,0.825 0.8875,2.4625 1.175,3.275 -2.75,-0.1625 -5.5,-0.4375 -8.25,-0.525 2.275,1.5375 4.9625,1.7375 7.6375,1.4125 -1.9375,3.525 -5.25,6.15 -9.275,6.7375 -10.5625,1.1125 -20.3,-4.225 -28.8875,-9.7625 -1.95,-1.2875 -3.5625,-3.4875 -6.1,-3.5625 -7.9375,-0.7375 -15.7,-2.8625 -23.6875,-3.2 -4.7,-1.0375 -10.9375,-1.25 -13.375,-6.1375 -1.4875,-2.4125 -2.65,-4.9875 -4.2,-7.35 0.225,4.525 3.675,7.7625 5.35,11.7375 4.6875,1.6875 9.75,2.3125 14.1375,4.8125 6.0125,3.3375 12.875,5.925 17.2,11.55 -0.0625,-0.7125 -0.2,-2.1375 -0.275,-2.85 3.4875,-0.0125 6.95,-0.2625 10.4375,-0.4125 -0.125,-0.475 -0.3625,-1.4375 -0.475,-1.925 -3.825,0.2625 -7.6375,0.8625 -11.475,0.625 -4.95,-2.6875 -9.7875,-5.625 -14.75,-8.3 5.075,-0.4875 9.65,2.125 14.6375,2.4 3.4,0.7875 7.45,-0.6 10.1375,2.2 8.0375,6.375 17.7125,12.475 28.4125,11.325 -0.1375,4.2875 -1.4625,8.8 -4.525,11.9125 -7.9875,3.2 -16.8,3.1125 -25.275,3.875 -7.25,0.6375 -14.3875,-1.2125 -21,-4.05 -3.0625,-2.4375 -6.2875,-4.6875 -9.775,-6.4625 3.875,-2.675 7.525,-6.725 7.0375,-11.775 -4.1375,-3.45 -9.35,-5.4 -13.175,-9.2375 l 2.725,-1.825 c -5.7625,1.7125 -9.7,7.325 -10.775,13.0875 1.6875,1.65 2.9375,4.425 5.8875,3.8125 -6.875,2.5625 -14.2625,7.875 -13.675,16.15 1.85,1.325 3.675,2.6875 5.4375,4.15 -2.2375,1.4125 -4.9625,2.1625 -6.7875,4.1875 -1.8375,1.975 -2.25,4.75 -3.1375,7.2125 1.925,2.675 4.1125,5.1875 6.825,7.1 7.5875,5.2875 13.55,12.725 21.9625,16.8875 -5.4375,0.875 -11.025,1.475 -16.4375,0.0875 -0.9,-1.3125 -2.6625,-2.775 -2.4375,0 -5.0875,0.25 -10.1125,-0.7375 -15.175,-0.9875 -10.8,-1.5875 -21.8,0.3875 -32.5875,-1.425 -9.0625,-1.2875 -18.425,-2.55 -26.575,-7.025 -5.025,-2.775 -6.9625,-8.6 -8.2125,-13.8375 -0.7125,-2.9125 -0.35,-6.175 -2.2875,-8.6625 -0.4375,6.0375 1.6,11.9375 4.1625,17.3125 -2.525,0.1375 -5.05,0.325 -7.5625,0.5375 0.3625,6.8125 -1.1875,13.4875 -2.2375,20.175 l -1.3875,-0.225 c -0.05,-0.8 -0.1375,-2.4 -0.1875,-3.2 -0.2625,0.2125 -0.775,0.65 -1.025,0.8625 l -0.425,0 c 0.05,-0.775 0.125,-2.3375 0.175,-3.1125 0.675,0.2125 2.025,0.6375 2.7125,0.85 -0.025,-1.75 -0.0375,-3.5 -0.05,-5.2375 -2.725,0.4625 -3.0625,-1.5625 -3.025,-3.7875 l -1.0375,0.15 c 0.0125,-0.8875 0.025,-2.65 0.0375,-3.525 -0.7,0.725 -2.0875,2.175 -2.775,2.9 0.2125,-0.875 0.65,-2.6125 0.8625,-3.4875 l -1.8125,0.325 c 0.025,-0.5125 0.05,-1.525 0.0625,-2.0375 l -1.9625,0.0125 c -0.1,1.1 -0.3,3.275 -0.4,4.375 0.8625,0.8625 1.7125,1.7375 2.575,2.625 1,-0.2125 2.0125,-0.4125 3.0125,-0.625 -0.2375,0.75 -0.725,2.25 -0.9625,3 l 1.7875,-0.2 c -0.125,1.825 -0.2625,3.6625 -0.425,5.4875 -0.6625,-1.4625 -1.2125,-2.975 -1.75,-4.475 -0.725,-0.9 -2.175,-2.7 -2.9,-3.6 -0.1875,1.3625 -0.55,4.075 -0.7375,5.4375 0.6625,-0.15 1.9875,-0.4375 2.65,-0.5875 -0.5875,1.5875 -1.1875,3.175 -1.7875,4.7625 l 1.7375,-0.05 0.4125,-3.025 c 0.375,0.725 1.1125,2.175 1.4875,2.9 -0.675,0.85 -2.0125,2.55 -2.6875,3.4 0.9375,-0.425 2.7875,-1.275 3.725,-1.7 l -1.9625,3.5625 1.925,-0.9 c 0.3625,0.6125 1.075,1.8375 1.4375,2.45 -0.025,-1.3125 -0.0875,-3.9125 -0.125,-5.2125 2,2.075 1.9125,4.3625 0.3125,6.4375 -5.05,0.9375 -10.175,0.9875 -15.25,0.2375 -9.4375,-0.875 -18.6,2.7125 -28.05,1.7 -7.9375,-0.775 -16.05,1.1875 -23.825,-1.125 -4.1,-1.05 -8.3375,-1.25 -12.4625,-2.125 1.5,-0.7 3.075,-0.9375 4.725,-0.7375 -0.5,-1.85 -1,-3.7625 -1.075,-5.6875 1.35,2.1125 2.375,4.4125 3.55,6.625 -0.5,-3.1 -1.1875,-6.1875 -1.7625,-9.2625 0.7875,1.3625 2.375,4.1125 3.1625,5.4875 1.2875,-1.3125 2.45,-2.7625 2.8,-4.6125 -0.625,0.7875 -1.875,2.3875 -2.5,3.175 -0.9625,-5.45 -3.75,-10.3625 -4.775,-15.7875 1.2125,1.6375 2,3.4875 2.3875,5.5375 1.9125,-3.4875 -0.5375,-7.225 -1.075,-10.7 0.5375,1.05 1.6,3.15 2.1375,4.2 0.2,-0.025 0.6125,-0.0875 0.8125,-0.125 0.225,-0.5 0.7,-1.5125 0.925,-2.0125 0.2125,0.825 0.6375,2.4875 0.85,3.325 l 0.8875,-2.1375 c 0.95,0.175 1.8875,0.35 2.8375,0.55 -0.0875,-0.225 -0.2625,-0.6625 -0.3375,-0.8875 1.175,-1.65 -1.0125,-2.6125 -1.4875,-4.025 0.575,-0.8875 1.725,-2.675 2.3125,-3.5625 -1,0.55 -2.975,1.65 -3.975,2.1875 0.4625,-1.6625 1.4,-5 1.8625,-6.675 -1.6125,2.1375 -3.0875,4.375 -4.4375,6.7125 0.5875,-2.5125 1.2875,-5.0125 2.95,-7.025 -0.2875,-0.625 -0.8875,-1.8875 -1.1875,-2.5125 -0.4,1.0125 -1.2125,3.05 -1.6125,4.075 -0.05,-1.2375 -0.15,-3.7125 -0.2125,-4.95 0.7625,0.2125 2.2875,0.625 3.05,0.8375 -1.875,-4.0625 -2.25,-8.5625 -3.3625,-12.85 0.375,0.5875 1.1,1.7875 1.475,2.3875 1.5,0.875 3.1625,1.4 4.9125,1.5375 0.3875,2.6 0.7,5.2 1.1,7.8 0.775,2.25 0.975,4.625 1.25,6.9875 l -3.8,-0.0625 c 1.4875,1.1 3.125,1.5125 4.9375,1.2375 0.8125,4.1625 2.0625,8.2125 3.225,12.2875 -0.975,-0.0125 -2.9375,-0.0625 -3.9125,-0.075 2.725,0.175 4.725,1.725 6.3875,3.7375 0.075,1.75 0.1875,3.4875 0.2625,5.25 0.9125,0.1625 2.7375,0.5 3.6625,0.6625 -0.6125,-0.45 -1.8125,-1.3625 -2.425,-1.8125 -0.5125,-7.5 -3.875,-14.4 -4.95,-21.7875 -0.85,-6.4375 -2.5625,-12.875 -1.675,-19.4 1,2.4125 1.125,5.0125 1.5,7.5625 0.2,-1.075 0.6125,-3.25 0.8125,-4.3375 0.5375,0.7 1.6,2.1 2.125,2.7875 0.8,-6.2625 0.5,-12.5875 0.8125,-18.8875 1.6875,6.125 0.8,12.5 -0.0625,18.675 0.6,-0.1125 1.8,-0.3375 2.4,-0.45 -0.025,-3.0625 -0.1,-6.1125 -0.4625,-9.15 0.3875,-0.175 1.1625,-0.5125 1.55,-0.6875 -0.0125,3.3125 -0.1,6.65 -0.6375,9.9375 0.55,0 1.6625,-0.0125 2.2125,-0.0125 -0.2125,-9.575 -1.4,-19.2125 -0.125,-28.75 0.4875,12.325 0.6375,24.6875 1.7375,37 l -1.0375,0.075 c -0.0125,-2.2125 -0.0125,-4.4125 0.0125,-6.6125 l -1.9375,-0.025 c 0.1,2.475 2.9625,7.3875 -1.475,6.9125 1.1,-2.25 1.3125,-4.55 0.625,-6.8875 -0.3875,0.05 -1.1375,0.1375 -1.5125,0.1875 1.7625,2.5375 1.6,4.375 -0.5,5.475 -0.1875,-0.85 -0.5875,-2.5375 -0.775,-3.3875 l -1.65,-1 c -0.1125,2.925 3.6625,6.6375 0.6375,8.9875 2.4,-1.5 5.6875,-2.8125 8.0375,-0.3875 0.05,-0.9 0.1375,-2.675 0.175,-3.575 l 1.2375,0.475 c 0.0375,-1.3875 0.1125,-4.1625 0.15,-5.55 1.275,3.8625 1.725,7.95 1.6625,12 0.4875,-0.175 1.45,-0.5375 1.9375,-0.7125 1.1375,2.2625 3.325,2.6375 5.6375,2.6125 -0.5125,2.475 -1.0125,4.95 -1.125,7.4875 4.125,-4.3625 0.9,-10.9125 2.9875,-16.1 0.4,3.925 0.4875,7.875 0.6375,11.8125 3.1,6.9375 3.975,14.65 7.2,21.5375 -1.225,1.35 -2.375,2.775 -3.45,4.25 l -0.125,-3.5125 -1.4375,0.1125 c 0.6375,1.65 1.225,3.35 1.8125,5.0375 0.9125,-1.325 1.6375,-3.225 3.4875,-3.375 0,1.2375 -0.275,2.425 -0.8125,3.575 1.025,-0.4875 2.025,-0.9875 3.0375,-1.5 -2.1,-3.8125 -2.575,-8.2125 -3.8625,-12.3125 -3.65,-11.575 -5.275,-23.75 -3.6875,-35.825 0.1125,0.1 0.3625,0.3 0.475,0.4 0.725,1.1625 1.475,2.325 2.2375,3.475 -0.1375,0.325 -0.3875,0.975 -0.525,1.3 2.05,1.6625 1.175,4.0375 -0.1625,5.8125 0.7375,-0.375 2.2,-1.125 2.9375,-1.5 -0.0125,1.8125 -0.025,3.65 -0.1125,5.475 l 1.7125,-1.55 c 0.4875,2.7 0.8125,5.425 1.2875,8.1375 0.825,-4.6375 0.9375,-9.4 2.5875,-13.8625 0.925,4.5375 -0.4375,9.1875 -1.7125,13.5375 -0.6375,0.4 -1.9125,1.2 -2.5375,1.6 1.0875,-0.075 3.2625,-0.2125 4.35,-0.275 -0.45,0.6375 -1.325,1.925 -1.7625,2.5625 0.05,0.95 0.1,1.9125 0.125,2.875 0.9875,-0.05 1.975,-0.1 2.9625,-0.1375 0.8875,-1.9875 1.9,-3.9125 3.0125,-5.7625 0.2875,-4.725 -1.5625,-9.4625 -0.325,-14.1 0.4,3.425 0.55,6.9625 2.3125,10.05 0.475,-2.95 0.3375,-5.925 0.4,-8.8875 0.6375,2.175 1.1625,4.3625 1.775,6.55 2.8,-6.3125 1.125,-13.225 1.7625,-19.85 0.35,-4.5875 -0.25,-9.225 0.6625,-13.7625 -0.2375,-2.15 -0.3875,-4.3125 -0.5,-6.475 2.3125,0.1625 3.2375,-1 2.775,-3.4875 -0.8,0.2375 -2.4,0.725 -3.2,0.9625 0.2,-0.625 0.6,-1.8625 0.7875,-2.475 -0.7625,-0.625 -2.3125,-1.875 -3.0875,-2.5 0.1375,3.7375 4.3125,9.4375 -0.9125,11.2 0.2375,2.3375 0.5,4.6875 0.5375,7.0625 -1.1,-1.325 0.3375,-6.3 -2.15,-5.3 -0.4375,1.6375 -0.75,3.3 -0.9375,5.0125 -0.525,-2.3 -1.0625,-4.575 -1.6125,-6.85 -0.4875,0.2625 -1.475,0.7875 -1.9625,1.05 1.4,2.1875 1.625,4.8 1.825,7.325 -0.875,-1.6875 -1.6625,-3.425 -2.4875,-5.1375 -0.1625,3.525 0.3125,7.1875 -0.9125,10.5875 -0.9125,-5.125 1.9375,-12.675 -3.175,-15.9625 -0.7125,-2.0625 -1.4625,-4.125 -2.0875,-6.2125 l -1.975,0.7 c 0.85,2.4625 1.6375,4.9625 1.7375,7.6 -1.025,-1.6125 -1.8375,-3.3375 -2.575,-5.0875 -0.4375,0.725 -1.3125,2.175 -1.75,2.9 1,1.5125 1.625,3.225 2.25,4.9125 -0.825,-0.325 -2.475,-0.9625 -3.3125,-1.2875 0.3,3.9 0.425,7.8375 -0.1875,11.725 -0.875,-3.4 -1.0125,-6.9125 -1.05,-10.4 1.9375,-3.0375 0.4875,-6.5875 0.7375,-9.9 0.725,-9.475 4.975,-18.15 7.45,-27.2125 -1.65,0.975 -2.75,2.475 -3.2375,4.3125 -2.075,5.9125 -3.875,11.9125 -5.825,17.875 -0.1625,2.15 -0.25,4.3875 -1.3,6.35 -0.125,4.825 -0.1125,9.6625 -0.2625,14.5 l -0.4,0.0625 c 0.3625,-7.1375 -0.75,-14.1875 -1.375,-21.25 0.475,1.4125 1.425,4.25 1.8875,5.6625 0.2625,-2.175 0.1125,-4.3375 -0.175,-6.4875 2.1,-0.8625 1.175,-3.2625 1.5,-4.975 l -1.5,0 c 0.075,0.9 0.2375,2.725 0.3125,3.6375 l -0.95,-0.1125 c 0.0875,-0.7375 0.275,-2.2125 0.3625,-2.9625 l -2.3875,-0.3875 0.6625,3.275 c -0.725,-0.9 -2.175,-2.6875 -2.9,-3.575 l 0.475,2.0125 c 2.6,5.8375 -1.2875,-0.1875 -3.1625,1.375 -1.875,-1.475 1.35,-2.4125 2.4625,-2.725 -0.75,-0.55 -2.25,-1.625 -3,-2.1625 -0.625,1.5375 -1.1875,3.1 -1.675,4.7 -0.8,-0.45 -2.375,-1.3625 -3.1625,-1.8125 0.725,0.625 2.1875,1.8875 2.9125,2.525 -1.0875,0.7875 -2.2125,1.55 -3.3125,2.325 0.55,-0.175 1.65,-0.525 2.2,-0.7 l 0.925,2.825 c -1.9,-0.1625 -3.8125,-0.2875 -5.725,-0.3625 0.8875,1.5 1.775,3 2.675,4.5125 -0.9125,-0.3 -2.75,-0.8875 -3.675,-1.1875 l 0,1.1 c 0.5625,0.05 1.7,0.15 2.2625,0.2 -0.1125,1.8625 -0.1625,3.75 -0.3375,5.625 -0.2625,-1.3625 -0.7875,-4.0625 -1.05,-5.4125 -0.6875,2.725 -1.0875,5.525 -1.9,8.225 -0.0125,-3.175 0.225,-6.35 0.2625,-9.5125 -0.7,0.55 -2.075,1.6625 -2.7625,2.2125 4.5,-8.3375 9.1625,-16.5875 14.3625,-24.5375 l -0.4125,-0.65 c 1.0875,-1.0375 2.175,-2.0875 3.2,-3.2 l 1.275,-0.375 c -0.0875,-0.5875 -0.2375,-1.7625 -0.325,-2.35 13.475,0.1625 26.875,1.6375 40.35,1.5875 6.15,1.175 7.475,8.5875 7.5,13.8375 2.9375,-0.3625 5.85,-0.7875 8.775,-1.25 -1.8125,2.5125 -3.3375,5.275 -3.775,8.3875 3.175,-4.375 4.8375,-10.1375 9.7,-13.0375 6.5125,-3.9875 14.25,-4.9375 21.625,-6.2375 z"
       id="path3225"
       inkscape:connector-curvature="0"
       style="fill:#242627"
       sodipodi:nodetypes="ccccccccccccccccccccccccccccccccccccccccccccccccccccccccccccccccccccccccccccccccccccccccccccccccccccccccccccccccccccccccccccccccccccccccccccccccccccccccccccccccccccccccccccccccccccccccccccccccccccccccccccccccccccccccccccccccccccccccccccccccccccccccccccccccccccccccccccccccccccccccc" />
    <path
       d="m 147.82939,535.06801 c 4.1,-0.1375 8.2125,-0.225 12.2625,-0.9 -0.0625,0.2875 -0.2,0.8625 -0.275,1.15 -0.4125,0.425 -1.25,1.275 -1.675,1.7 0.675,0.0125 2.025,0.0125 2.7,0.0125 0.2,-0.6 0.575,-1.8 0.775,-2.4 0.925,-0.2625 2.7875,-0.775 3.7125,-1.025 0.1125,1.4875 0.2375,2.9625 0.375,4.45 -0.9125,-0.775 -2.725,-2.325 -3.625,-3.1 0.575,1.1 1.725,3.3125 2.3,4.4125 -1.175,-0.3125 -3.525,-0.95 -4.7,-1.2625 -0.9125,3.425 3.775,1.0625 5.3625,1.7 l -0.05,1.25 c -0.85,0.5125 -2.5375,1.5375 -3.3875,2.05 l 3.5,-0.8375 c 0.6875,0.7125 1.375,1.4375 2.0625,2.175 -0.875,0.5 -2.6125,1.525 -3.475,2.0375 -1.6875,-2.8625 -3.8375,-5.375 -6.5875,-7.275 0.7125,1.5125 1.45,3.0125 2.2,4.5125 3.1875,-1.575 2.375,3.6375 3.0625,5.4625 -0.775,0.4125 -2.325,1.2375 -3.1,1.65 0.025,0.525 0.075,1.5625 0.1,2.075 -0.6125,-0.1125 -1.8125,-0.35 -2.425,-0.4625 l -0.8125,-0.675 -0.8875,-0.8875 c 2.45,-1 5.65,-0.9875 6.1625,-4.6375 l -4.0875,2.0375 c 0.625,-1.1625 1.2375,-2.325 1.875,-3.475 l -2.925,-2.425 1.3375,2.9875 c -1.3125,1.5375 -2.6,3.1 -4.0625,4.5 0.925,-1.725 1.9125,-3.4125 3,-5.05 -1.2375,0.1125 -3.725,0.3375 -4.9625,0.45 l -0.925,0.1625 c 2.35,2.025 1.15,4.65 0.4,7.025 0.25,-3.1375 -0.55,-6.1 -1.9875,-8.85 -1.2625,-0.025 -3.8,-0.0625 -5.0625,-0.075 l 1.125,2.2 -1.775,0.85 c 0.1125,-2.55 -0.0125,-5.25 1.6125,-7.4125 l -0.775,3.675 c 0.8625,-0.0375 2.6,-0.1125 3.4625,-0.15 -0.2625,-0.4625 -0.8,-1.375 -1.075,-1.825 0.9125,0.1125 2.725,0.325 3.6375,0.4375 l -0.5375,0.525 -0.4125,0.5 c 0.2125,0.2 0.625,0.6 0.8375,0.8125 1.05,-1 1.9125,-2.1625 2.5875,-3.5 l -1,3.2625 c 1.275,-0.2375 3.8,-0.7125 5.075,-0.95 l 0.3625,-2.0375 -1.9625,0.725 1.075,-2.175 c -0.975,0.125 -2.9375,0.3625 -3.9125,0.475 0.9125,-0.75 2.7375,-2.2375 3.6625,-2.9875 -1.15,0.0875 -2.3,0.175 -3.45,0.275 -0.5,1.5875 -1.175,3.1125 -2,4.5625 0.325,-1.3375 0.9625,-4.0125 1.2875,-5.3375 -0.7625,0.7125 -2.275,2.15 -3.0375,2.875 -0.2375,-0.825 -0.7125,-2.45 -0.9625,-3.2625 z"
       id="path3227"
       inkscape:connector-curvature="0"
       style="fill:#242627"
       sodipodi:nodetypes="cccccccccccccccccccccccccccccccccccccccccccccccccccccccccccc" />
    <path
       d="m 166.56689,537.89301 c 0.0125,-1.325 0.0125,-2.625 0.0125,-3.9375 4.4625,2.5125 9.725,2.4 14.6625,2.75 -2.5875,2.725 -5.1375,5.5375 -7.0125,8.825 l -1.3,0.0875 c 0.05,0.45 0.1375,1.375 0.175,1.8375 -3.7,2.3 -3.9875,8.7 -8.7875,8.9375 0.0875,0.325 0.275,0.9625 0.3625,1.2875 -1.9125,2.35 -3.4375,4.975 -5.1,7.5 0.1375,0.65 0.4,1.95 0.5375,2.6 l -1.8625,-0.8 c -0.5125,0.8625 -1.5375,2.5625 -2.05,3.4125 0.4625,-3.05 0.4625,-6.1875 1.225,-9.175 1.55,-3.675 3.6875,-7.075 5.7875,-10.45 0.8,1.3 1.6,2.6125 2.5,3.8625 0.0625,-2.0125 0.1375,-4.025 -0.6625,-5.9 3.1125,-3.6875 6.175,-7.4125 9.3625,-11.025 -2.9875,0.7375 -4.5125,3.55 -6.2125,5.825 -1.0625,-2.025 -2.175,-4.1125 -4,-5.575 1.1,0.225 3.325,0.675 4.425,0.9 0.0375,-0.4625 0.1125,-1.4 0.15,-1.8625 z"
       id="path3229"
       inkscape:connector-curvature="0"
       style="fill:#242627"
       sodipodi:nodetypes="cccccccccccccccccccccc" />
    <path
       d="m 156.45439,536.10551 c 0.8375,0.7625 0.8375,0.7625 0,0 z"
       id="path3231"
       inkscape:connector-curvature="0"
       style="fill:#ffffff"
       sodipodi:nodetypes="cc" />
    <path
       d="m 157.96689,538.29301 c 0.8,0.7375 0.8,0.7375 0,0 z"
       id="path3233"
       inkscape:connector-curvature="0"
       style="fill:#ffffff"
       sodipodi:nodetypes="cc" />
    <path
       d="m 204.29189,546.69301 c -0.625,-3.075 0.6625,-6.175 3.2125,-7.95 -0.9,2.675 -1.525,5.6625 -3.2125,7.95 z"
       id="path3235"
       inkscape:connector-curvature="0"
       style="fill:#ffffff"
       sodipodi:nodetypes="ccc" />
    <path
       d="m 202.97939,540.96801 c 0.7625,0.7125 0.7625,0.7125 0,0 z"
       id="path3237"
       inkscape:connector-curvature="0"
       style="fill:#ffffff"
       sodipodi:nodetypes="cc" />
    <path
       d="m 214.76689,550.46801 c 2.1875,-3.7625 3.125,-8.175 6,-11.55 -0.9375,3.7875 -2.4875,7.3875 -3.575,11.1375 -0.675,1.5125 -1.3625,3.025 -2.05,4.5375 -0.0875,-1.025 -0.275,-3.0875 -0.375,-4.125 z"
       id="path3239"
       inkscape:connector-curvature="0"
       style="fill:#ffffff"
       sodipodi:nodetypes="ccccc" />
    <path
       d="m 221.90439,540.35551 c 1.3125,-1.0875 3.425,0.925 2.9875,2.35 -1.2875,0.75 -3.65,-0.825 -2.9875,-2.35 z"
       id="path3241"
       inkscape:connector-curvature="0"
       style="fill:#ffffff"
       sodipodi:nodetypes="ccc" />
    <path
       d="m 214.34189,542.15551 c 0.725,0.7625 0.725,0.7625 0,0 z"
       id="path3243"
       inkscape:connector-curvature="0"
       style="fill:#ffffff"
       sodipodi:nodetypes="cc" />
    <path
       d="m 152.80439,543.75551 c 0.875,0.6 0.875,0.6 0,0 z"
       id="path3245"
       inkscape:connector-curvature="0"
       style="fill:#ffffff"
       sodipodi:nodetypes="cc" />
    <path
       d="m 185.54189,543.30551 c 0.7,0.7875 0.7,0.7875 0,0 z"
       id="path3247"
       inkscape:connector-curvature="0"
       style="fill:#ffffff"
       sodipodi:nodetypes="cc" />
    <path
       d="m 202.21689,543.48051 c 0.4875,0.925 0.4875,0.925 0,0 z"
       id="path3249"
       inkscape:connector-curvature="0"
       style="fill:#ffffff"
       sodipodi:nodetypes="cc" />
    <path
       d="m 292.96689,543.39301 c 0.8125,0.6375 0.8125,0.6375 0,0 z"
       id="path3251"
       inkscape:connector-curvature="0"
       style="fill:#ffffff"
       sodipodi:nodetypes="cc" />
    <path
       d="m 225.50439,544.68051 c 4.1875,0.1875 -1.775,3.7875 0,0 z"
       id="path3253"
       inkscape:connector-curvature="0"
       style="fill:#ffffff"
       sodipodi:nodetypes="cc" />
    <path
       d="m 198.35439,551.60551 c 1.475,-2.4 2.5,-5.175 4.7375,-7.0125 -0.55,1.4125 -1.2625,2.775 -1.95,4.1375 0.65,-0.075 1.95,-0.225 2.6,-0.3 -0.2125,1.6875 -0.825,3.3 -1.325,4.925 0.4375,0.55 1.3125,1.65 1.7375,2.2 -0.9125,-0.5125 -2.7625,-1.55 -3.6875,-2.0625 l 1.1375,3.8375 -1.125,0.3375 c -0.65,-2.05 -1.3125,-4.075 -2.125,-6.0625 z"
       id="path3255"
       inkscape:connector-curvature="0"
       style="fill:#ffffff"
       sodipodi:nodetypes="cccccccccc" />
    <path
       d="m 214.09189,548.14301 c -1.575,-0.975 -1.65,-1.9625 -0.225,-2.9625 1.5,1 1.5875,1.975 0.225,2.9625 z"
       id="path3257"
       inkscape:connector-curvature="0"
       style="fill:#ffffff"
       sodipodi:nodetypes="ccc" />
    <path
       d="m 186.42939,550.69301 c -2.2,-3.5 4.025,-1.15 0,0 z"
       id="path3259"
       inkscape:connector-curvature="0"
       style="fill:#ffffff"
       sodipodi:nodetypes="cc" />
    <path
       d="m 211.65439,546.60551 c 2.7625,4.8375 4.1875,10.75 2.275,16.1625 -0.1125,1.225 -0.3625,3.7 -0.4875,4.9375 -1.0375,-1.5 -1.4125,-3.15 -1.1,-4.95 -3.1625,1.0875 -4.05,-1.8 -4.3,-4.4375 1.45,1.2125 3.125,2.4125 5.125,2.1875 0.3625,-2 0.5375,-4.025 0.7625,-6.0375 l -1.8,0.925 c -0.075,-2.9375 -0.325,-5.8625 -0.475,-8.7875 z"
       id="path3261"
       inkscape:connector-curvature="0"
       style="fill:#ffffff"
       sodipodi:nodetypes="ccccccccc" />
    <path
       d="m 226.29189,548.38051 c 4.175,0.3125 -1.9375,3.6875 0,0 z"
       id="path3263"
       inkscape:connector-curvature="0"
       style="fill:#ffffff"
       sodipodi:nodetypes="cc" />
    <path
       d="m 186.42939,550.69301 c 1.95,3.5875 -4.225,0.7125 0,0 z"
       id="path3265"
       inkscape:connector-curvature="0"
       style="fill:#ffffff"
       sodipodi:nodetypes="cc" />
    <path
       d="m 200.25439,550.96801 c 4.2625,0.0875 -1.8375,3.7125 0,0 z"
       id="path3267"
       inkscape:connector-curvature="0"
       style="fill:#242627"
       sodipodi:nodetypes="cc" />
    <path
       d="m 196.67939,552.41801 1.0875,0.175 c 1.95,2.625 -2.7375,2.1625 -1.0875,-0.175 z"
       id="path3269"
       inkscape:connector-curvature="0"
       style="fill:#ffffff"
       sodipodi:nodetypes="ccc" />
    <path
       d="m 193.12939,555.95551 1.75,-0.125 c 0.325,0.025 0.975,0.0875 1.3,0.1125 0,0.8625 -0.025,1.7125 -0.0875,2.575 0.975,1.3875 1.9625,2.7625 3.025,4.0875 -0.6875,-2.65 -1.75,-5.2 -2.6,-7.7875 1.4625,1.3 2.9125,2.6125 4.3375,3.95 -0.7,2.55 -1.225,5.15 -1.925,7.7125 -0.0375,1.2125 -0.1,3.6375 -0.1375,4.85 l -1.2375,0.1 c -0.5875,-3.95 -3.7625,-6.7 -5.925,-9.8375 0.475,-0.2 1.425,-0.6 1.8875,-0.8 -0.15,-1.625 -0.2625,-3.2375 -0.3875,-4.8375 z"
       id="path3271"
       inkscape:connector-curvature="0"
       style="fill:#ffffff"
       sodipodi:nodetypes="ccccccccccccc" />
    <path
       d="m 211.46689,556.95551 c 0.8125,0.7875 0.8125,0.7875 0,0 z"
       id="path3273"
       inkscape:connector-curvature="0"
       style="fill:#ffffff"
       sodipodi:nodetypes="cc" />
    <path
       d="m 160.20439,560.59301 c -2.0875,-3.5375 4.1,-0.825 0,0 z"
       id="path3275"
       inkscape:connector-curvature="0"
       style="fill:#ffffff"
       sodipodi:nodetypes="cc" />
    <path
       d="m 174.05439,559.54301 0.825,-0.0125 c 0.075,0.45 0.2,1.35 0.2625,1.8125 l -1.2125,0.025 c 0.0375,-0.45 0.1,-1.375 0.125,-1.825 z"
       id="path3277"
       inkscape:connector-curvature="0"
       style="fill:#242627"
       sodipodi:nodetypes="ccccc" />
    <path
       d="m 311.05439,570.44301 c 4.825,-3.2125 8.025,-8.2875 12.8625,-11.4625 -11.4625,16.0375 -31.1625,25.7625 -50.75,26.35 -0.0125,-0.3375 -0.0375,-1.025 -0.05,-1.3625 13.8,0.3 26.875,-5.7375 37.9375,-13.525 z"
       id="path3279"
       inkscape:connector-curvature="0"
       style="fill:#ffffff"
       sodipodi:nodetypes="ccccc" />
    <path
       d="m 160.20439,560.59301 c 2.45,3.3625 -3.95,1.2 0,0 z"
       id="path3281"
       inkscape:connector-curvature="0"
       style="fill:#ffffff"
       sodipodi:nodetypes="cc" />
    <path
       d="m 206.70439,560.95551 c 0.8,0.7125 0.8,0.7125 0,0 z"
       id="path3283"
       inkscape:connector-curvature="0"
       style="fill:#ffffff"
       sodipodi:nodetypes="cc" />
    <path
       d="m 196.51689,565.30551 c -1.3375,-0.4875 -2.025,-3.5 -0.275,-3.7625 1.2375,0.5625 2.0875,3.5 0.275,3.7625 z"
       id="path3285"
       inkscape:connector-curvature="0"
       style="fill:#242627"
       sodipodi:nodetypes="ccc" />
    <path
       d="m 170.00439,563.31801 c 4.3375,0.225 -1.85,3.6125 0,0 z"
       id="path3287"
       inkscape:connector-curvature="0"
       style="fill:#242627"
       sodipodi:nodetypes="cc" />
    <path
       d="m 324.62939,563.46801 c 0.2375,0.45 0.725,1.35 0.9625,1.8 4.975,-0.0375 8.525,4.4125 12.6375,6.7375 -1.1,3.325 -2.9,6.3375 -4.7875,9.2625 -1.95,-0.35 -3.8875,-0.775 -5.7875,-1.3375 0.25,-0.95 0.45,-1.9125 0.6125,-2.875 -0.8625,-1.725 -2.5125,-0.2125 -3.675,0.25 -1.875,-1.5875 -5.075,-2.525 -5.1,-5.45 0.525,-3.3625 2.65,-6.1875 5.1375,-8.3875 z"
       id="path3289"
       inkscape:connector-curvature="0"
       style="fill:#242627"
       sodipodi:nodetypes="ccccccccc" />
    <path
       d="m 180.47939,567.13051 c 0.625,0.7625 0.625,0.7625 0,0 z"
       id="path3291"
       inkscape:connector-curvature="0"
       style="fill:#242627"
       sodipodi:nodetypes="cc" />
    <path
       d="m 205.59189,567.39301 c 1.7125,-0.0125 1.7875,3.0125 0.675,3.8875 -1.8375,0.0875 -1.725,-2.9875 -0.675,-3.8875 z"
       id="path3293"
       inkscape:connector-curvature="0"
       style="fill:#ffffff"
       sodipodi:nodetypes="ccc" />
    <path
       d="m 157.99189,580.51801 c 0.0375,-3.6125 -1.4125,-7.45 0.05,-10.9 1.4875,6.5125 -0.425,13.175 0.575,19.75 -0.525,-2.4 -1,-4.8125 -1.875,-7.1 -0.3125,3.0375 -0.3375,6.125 -0.8375,9.15 -0.6,-6.25 -0.3125,-12.6125 -0.0875,-18.8875 0.5,2.625 0.775,5.3125 1.0125,7.9875 z"
       id="path3295"
       inkscape:connector-curvature="0"
       style="fill:#242627"
       sodipodi:nodetypes="cccccccc" />
    <path
       d="m 211.12939,569.94301 1.9375,-0.0875 c -2.425,17.7 -0.825,35.675 -0.675,53.45 -0.3125,-0.2375 -0.9125,-0.7125 -1.225,-0.9625 -0.3375,-4.375 0.7625,-9.0125 -1.425,-13.075 -0.1,-6.7125 1.1375,-13.375 0.7375,-20.1 -0.4875,-6.4375 0.95,-12.7875 0.65,-19.225 z"
       id="path3297"
       inkscape:connector-curvature="0"
       style="fill:#ffffff"
       sodipodi:nodetypes="ccccccc" />
    <path
       d="m 203.15439,572.74301 c 0.4625,0.325 0.4625,0.325 0,0 z"
       id="path3299"
       inkscape:connector-curvature="0"
       style="fill:#ffffff"
       sodipodi:nodetypes="cc" />
    <path
       d="m 167.94189,584.18051 c 0.05,-3.925 -0.375,-7.9 0.3875,-11.775 0.5,3.9125 0.2625,7.8625 0.375,11.8 z"
       id="path3301"
       inkscape:connector-curvature="0"
       style="fill:#242627"
       sodipodi:nodetypes="cccc" />
    <path
       d="m 195.79189,575.14301 c 0.9875,5.025 0.2125,10.1875 0.3125,15.275 l -0.7,0.0375 c 0.1375,-5.1 -0.3,-10.2375 0.3875,-15.3125 z"
       id="path3303"
       inkscape:connector-curvature="0"
       style="fill:#242627"
       sodipodi:nodetypes="cccc" />
    <path
       d="m 317.80439,580.76801 c 2.6875,-0.1875 5.525,-0.2125 7.8,-1.85 6.25,5.175 13.0625,9.65 20.2,13.5 5.6625,2.7875 12.1125,1.9625 18.2,2.0375 7.2375,-0.025 14.4375,-0.825 21.55,-2.05 -0.625,6.0875 -1.2125,14.5625 -8.1,16.8 -7.8875,2.875 -16.375,3.35 -24.6625,4.0375 -4.4875,0.3 -9.3375,0.6 -13.325,-1.8875 -7.5625,-4.4 -14.3375,-10.025 -21.9,-14.4375 -2.2375,-1.3625 -4.9375,-2.5375 -5.9,-5.1875 -0.875,-4.325 3,-7.3 5.4375,-10.275 2.4625,1.4 4.9375,2.825 7.6125,3.8 -1.875,-2.075 -4.5125,-3.15 -6.9125,-4.4875 z"
       id="path3305"
       inkscape:connector-curvature="0"
       style="fill:#242627"
       sodipodi:nodetypes="ccccccccccccc" />
    <path
       d="m 325.31689,585.18051 c 2.9875,1.25 5.75,3.7 6.7625,6.8125 -0.0625,3.8375 -3.2125,6.75 -6.1,8.875 1.7375,-2.975 4.5875,-5.5375 4.775,-9.2 -1.525,-2.3875 -3.725,-4.2375 -5.4375,-6.4875 z"
       id="path3307"
       inkscape:connector-curvature="0"
       style="fill:#ffffff"
       sodipodi:nodetypes="ccccc" />
    <path
       d="m 162.66689,587.01801 c 1.625,0.6375 1.925,5.5125 0.1625,6.05 -0.775,-1.8375 -0.7625,-4.1875 -0.1625,-6.05 z"
       id="path3309"
       inkscape:connector-curvature="0"
       style="fill:#242627"
       sodipodi:nodetypes="ccc" />
    <path
       d="m 248.46689,595.16801 c 5.7625,-1.7375 11.4875,1.75 17.375,1.3 -0.1625,0.4125 -0.4875,1.2375 -0.65,1.65 -3.4875,0.4875 -6.875,-0.2625 -9.8125,-2.225 -2.3375,0.2375 -4.7,0.1625 -6.9125,-0.725 z"
       id="path3311"
       inkscape:connector-curvature="0"
       style="fill:#ffffff"
       sodipodi:nodetypes="ccccc" />
    <path
       d="m 153.49189,596.58051 c 3.3125,-2.4375 3.2875,5.3125 -0.275,3.9125 -0.3875,-1.3125 -0.2875,-2.625 0.275,-3.9125 z"
       id="path3313"
       inkscape:connector-curvature="0"
       style="fill:#ffffff"
       sodipodi:nodetypes="ccc" />
    <path
       d="m 316.64189,598.25551 c 0.35,0.0375 1.0625,0.1125 1.425,0.15 7.5875,4.6 14.45,10.3 22.1375,14.7375 4.1875,2.425 9.1,0.95 13.65,1 6.8125,-0.2625 13.5375,-1.3125 20.25,-2.4625 0.4625,5.5125 -1,11.2875 -4.9625,15.3125 -3.4625,3.95 -9.025,4.7 -13.9625,5.1125 -6.5875,0.375 -13.5125,2.225 -19.9,-0.2 -6.4625,-3.3375 -12.15,-7.9625 -17.2625,-13.125 2,-1.2625 3.9,-2.675 5.6375,-4.275 l 1.5875,1.0625 c -0.1,-1.0625 -0.3125,-3.1875 -0.4125,-4.25 -2.3125,2.5375 -4.8,4.9125 -7.45,7.1 -3.7,-3.5375 -10.25,-5.9875 -10.125,-11.9375 0.875,-3.4 3.8375,-5.55 6.6625,-7.325 3.3,4.15 9.1625,5.9 10.9625,11.2375 0.3625,-0.15 1.1,-0.45 1.4625,-0.6125 -2.9,-4.0625 -6.875,-7.075 -10.9125,-9.925 0.3,-0.4 0.9125,-1.2 1.2125,-1.6 z"
       id="path3315"
       inkscape:connector-curvature="0"
       style="fill:#242627"
       sodipodi:nodetypes="ccccccccccccccccccc" />
    <path
       d="m 194.24189,605.29301 c 0.2125,-2.125 0.4125,-4.2375 0.7375,-6.3375 0.775,2.0875 1.075,4.2875 1.325,6.4875 -0.5125,-0.0375 -1.55,-0.1125 -2.0625,-0.15 z"
       id="path3317"
       inkscape:connector-curvature="0"
       style="fill:#242627"
       sodipodi:nodetypes="cccc" />
    <path
       d="m 155.42939,600.90551 c 1.925,0.6875 0.725,4.05 -0.525,5.05 -1.65,-0.7625 -0.5125,-3.9875 0.525,-5.05 z"
       id="path3319"
       inkscape:connector-curvature="0"
       style="fill:#ffffff"
       sodipodi:nodetypes="ccc" />
    <path
       d="m 162.99189,600.91801 c 0.75,0.7625 0.75,0.7625 0,0 z"
       id="path3321"
       inkscape:connector-curvature="0"
       style="fill:#ffffff"
       sodipodi:nodetypes="cc" />
    <path
       d="m 199.72939,604.39301 c 1.425,0.2 2.1625,0.9875 2.2,2.3875 -0.0125,4.4625 -1.175,8.875 -2.3375,13.175 l -1.275,-0.225 c 0.6125,-5.1125 3.5375,-10.2375 1.4125,-15.3375 z"
       id="path3323"
       inkscape:connector-curvature="0"
       style="fill:#242627"
       sodipodi:nodetypes="ccccc" />
    <path
       d="m 156.30439,605.80551 c 4.1625,0.175 -2,3.7875 0,0 z"
       id="path3325"
       inkscape:connector-curvature="0"
       style="fill:#ffffff"
       sodipodi:nodetypes="cc" />
    <path
       d="m 174.00439,608.59301 c -1.0375,-1.5625 -0.7625,-2.525 0.8375,-2.8875 1.05,1.5875 0.775,2.55 -0.8375,2.8875 z"
       id="path3327"
       inkscape:connector-curvature="0"
       style="fill:#ffffff"
       sodipodi:nodetypes="ccc" />
    <path
       d="m 169.16689,607.15551 c 0.7875,0.7375 0.7875,0.7375 0,0 z"
       id="path3329"
       inkscape:connector-curvature="0"
       style="fill:#ffffff"
       sodipodi:nodetypes="cc" />
    <path
       d="m 193.10439,609.60551 c 0.675,0.775 0.675,0.775 0,0 z"
       id="path3331"
       inkscape:connector-curvature="0"
       style="fill:#ffffff"
       sodipodi:nodetypes="cc" />
    <path
       d="m 206.79189,609.94301 c 2.075,1.075 1.2875,6.25 -0.2125,7.55 -0.8,-2.3125 -0.8375,-5.325 0.2125,-7.55 z"
       id="path3333"
       inkscape:connector-curvature="0"
       style="fill:#ffffff"
       sodipodi:nodetypes="ccc" />
    <path
       d="m 175.60439,613.35551 c 0.7,0.8 0.7,0.8 0,0 z"
       id="path3335"
       inkscape:connector-curvature="0"
       style="fill:#ffffff"
       sodipodi:nodetypes="cc" />
    <path
       d="m 176.89189,612.14301 2.7625,0.325 c -0.7375,2.5 -2.0125,5.3625 -0.375,7.8125 1.95,-0.2 1.1,-4.2375 0.175,-5.0625 l 0.8875,-1.825 c 0.225,-0.0125 0.675,-0.0625 0.9,-0.075 0.6875,1.975 0.6125,4.125 0.8375,6.2 0.6375,0.4375 1.9125,1.3 2.55,1.7375 0.25,-1.2125 0.7375,-3.6375 0.975,-4.85 0.8875,2.725 0.025,5.5 -0.3,8.225 -0.625,-0.9375 -1.875,-2.8125 -2.5,-3.75 0.375,3.075 0.8625,6.15 1.2125,9.25 -0.425,-0.75 -1.275,-2.25 -1.7,-3 -1.6125,0.7 -3.225,1.4125 -4.8375,2.125 -0.4625,-1.9375 0.2,-3.95 -0.4875,-5.8625 l 2.275,-1.175 c -0.7875,-0.6125 -1.575,-1.225 -2.35,-1.8375 1.1,-2.65 0.1375,-5.525 -0.025,-8.2375 z"
       id="path3337"
       inkscape:connector-curvature="0"
       style="fill:#ffffff"
       sodipodi:nodetypes="cccccccccccccccccc" />
    <path
       d="m 191.80439,613.35551 c 0.6,0.8 0.6,0.8 0,0 z"
       id="path3339"
       inkscape:connector-curvature="0"
       style="fill:#ffffff"
       sodipodi:nodetypes="cc" />
    <path
       d="m 173.02939,615.15551 c 0.725,0.8125 0.725,0.8125 0,0 z"
       id="path3341"
       inkscape:connector-curvature="0"
       style="fill:#ffffff"
       sodipodi:nodetypes="cc" />
    <path
       d="m 208.90439,616.21801 c 1.6625,0.2 1.7125,3.2 0.775,4.275 -1.7625,-0.1625 -1.6625,-3.1875 -0.775,-4.275 z"
       id="path3343"
       inkscape:connector-curvature="0"
       style="fill:#ffffff"
       sodipodi:nodetypes="ccc" />
    <path
       d="m 204.27939,617.23051 c 4.35,0.1375 -2,3.6375 0,0 z"
       id="path3345"
       inkscape:connector-curvature="0"
       style="fill:#ffffff"
       sodipodi:nodetypes="cc" />
    <path
       d="m 158.86689,619.65551 c 0.6125,-0.9625 0.6125,-0.9625 0,0 z"
       id="path3347"
       inkscape:connector-curvature="0"
       style="fill:#ffffff"
       sodipodi:nodetypes="cc" />
    <path
       d="m 157.71689,619.66801 1.15,-0.0125 0.475,1.0875 -0.65,0.6625 c -0.375,-0.1875 -1.1375,-0.55 -1.5125,-0.7375 z"
       id="path3349"
       inkscape:connector-curvature="0"
       style="fill:#ffffff"
       sodipodi:nodetypes="cccccc" />
    <path
       d="m 171.70439,619.73051 c 0.8,0.6 0.8,0.6 0,0 z"
       id="path3351"
       inkscape:connector-curvature="0"
       style="fill:#ffffff"
       sodipodi:nodetypes="cc" />
    <path
       d="m 222.46689,619.04301 2.4,-0.0625 c -0.075,0.6 -0.2375,1.8125 -0.325,2.4125 l 1.8625,-0.3125 c -0.2625,2.6625 -1.0625,5.2 -2.55,7.45 -0.1875,-1.2125 -0.55,-3.625 -0.725,-4.825 l -1.0375,0.0375 c 0.1,-1.175 0.2875,-3.525 0.375,-4.7 z"
       id="path3353"
       inkscape:connector-curvature="0"
       style="fill:#ffffff"
       sodipodi:nodetypes="cccccccc" />
    <path
       d="m 160.45439,620.93051 c 0.8125,0.6625 0.8125,0.6625 0,0 z"
       id="path3355"
       inkscape:connector-curvature="0"
       style="fill:#ffffff"
       sodipodi:nodetypes="cc" />
    <path
       d="m 202.90439,621.01801 c 0.875,0.75 0.875,0.75 0,0 z"
       id="path3357"
       inkscape:connector-curvature="0"
       style="fill:#ffffff"
       sodipodi:nodetypes="cc" />
    <path
       d="m 151.67939,622.14301 0.6,0.05 c 0.3375,0.6125 1.025,1.825 1.3625,2.4375 0.15,-0.6875 0.4375,-2.075 0.5875,-2.775 0.65,0.9375 1.2375,2.6875 2.6875,1.75 l 0.6125,0.0125 c -0.2625,1.275 -0.8125,2.4625 -1.6625,3.5375 0.9625,-0.3125 2.8875,-0.925 3.8625,-1.2375 -0.15,1.175 -0.425,3.525 -0.575,4.7 -1.15,-0.4625 -2.3,-0.9125 -3.4625,-1.3625 -0.0625,0.8125 -0.1875,2.425 -0.25,3.2375 l -1.9875,-1.6875 c -0.425,0.7 -1.25,2.1 -1.6625,2.8 -0.6,-1.825 -1.25,-3.6375 -1.9375,-5.425 0.5125,-0.75 1.0375,-1.5 1.575,-2.225 l 0.725,4.15 c 0.4875,-0.8875 1.4375,-2.6625 1.9125,-3.55 -3.575,1.0375 -2.4125,-2.65 -2.3875,-4.4125 z"
       id="path3359"
       inkscape:connector-curvature="0"
       style="fill:#ffffff"
       sodipodi:nodetypes="cccccccccccccccccc" />
    <path
       d="m 180.30439,622.18051 c 3.7125,0.2625 -1.75,3.6375 0,0 z"
       id="path3361"
       inkscape:connector-curvature="0"
       style="fill:#242627"
       sodipodi:nodetypes="cc" />
    <path
       d="m 186.57939,623.63051 c 0.7875,0.7625 0.7875,0.7625 0,0 z"
       id="path3363"
       inkscape:connector-curvature="0"
       style="fill:#ffffff"
       sodipodi:nodetypes="cc" />
    <path
       d="m 200.26689,623.19301 c 0.775,0.1375 2.3125,0.4 3.0875,0.5375 0,0.875 0.0125,2.6375 0.0125,3.525 1.3375,-2.3875 2.725,-4.75 4.1625,-7.075 -0.4375,3.7 -1.7375,7.225 -2.4625,10.8875 -0.2125,-0.95 -0.65,-2.8375 -0.8625,-3.775 -0.4125,0.0125 -1.2125,0.05 -1.625,0.075 -0.7625,-1.4125 -1.5375,-2.7875 -2.3125,-4.175 z"
       id="path3365"
       inkscape:connector-curvature="0"
       style="fill:#ffffff"
       sodipodi:nodetypes="cccccccc" />
    <path
       d="m 184.36689,625.30551 c 0.4625,0.275 0.4625,0.275 0,0 z"
       id="path3367"
       inkscape:connector-curvature="0"
       style="fill:#ffffff"
       sodipodi:nodetypes="cc" />
    <path
       d="m 161.74189,625.83051 c 0.75,0.725 0.75,0.725 0,0 z"
       id="path3369"
       inkscape:connector-curvature="0"
       style="fill:#ffffff"
       sodipodi:nodetypes="cc" />
    <path
       d="m 179.30439,625.76801 c 3.6625,-1.7875 0.2125,3.75 0,0 z"
       id="path3371"
       inkscape:connector-curvature="0"
       style="fill:#242627"
       sodipodi:nodetypes="cc" />
    <path
       d="m 205.44189,634.24301 c 1.9625,-3.05 1.3,-6.85 2.5375,-10.1625 0.1625,1.8 0.475,5.4125 0.6375,7.2125 1.025,-1.7375 2.1,-3.4375 3.2375,-5.0875 -0.475,1.7375 -1.1,3.4625 -1.8875,5.1125 -0.3,1.775 -0.6125,3.5875 -1.5125,5.1875 l -0.05,-4.7 c -0.75,0.6125 -2.225,1.8375 -2.9625,2.4375 z"
       id="path3373"
       inkscape:connector-curvature="0"
       style="fill:#ffffff"
       sodipodi:nodetypes="cccccccc" />
    <path
       d="m 185.51689,627.15551 c 1.675,0.9875 1.5375,3.875 2.6125,5.4875 -0.65,-0.1375 -1.9375,-0.4 -2.575,-0.5375 0.0875,0.9875 0.275,2.9625 0.375,3.9375 -1.475,-2.6625 -2.4375,-6.25 -0.4125,-8.8875 z"
       id="path3375"
       inkscape:connector-curvature="0"
       style="fill:#ffffff"
       sodipodi:nodetypes="ccccc" />
    <path
       d="m 212.80439,626.63051 c 1.8625,3.475 1.9875,7.85 3.4375,11.6125 1.1125,1.675 2.2,3.3875 3.075,5.225 -1.1,-1.025 -2.1625,-2.05 -3.2125,-3.1125 -1.2625,-0.4375 -2.475,-0.9375 -3.7,-1.4625 1.0375,-2.225 1.4375,-4.675 1.5625,-7.1 -0.4875,0.95 -1.4625,2.8375 -1.95,3.7875 l -0.35,-0.1625 c 0.5,-2.9125 0.5625,-5.8875 1.1375,-8.7875 z"
       id="path3377"
       inkscape:connector-curvature="0"
       style="fill:#ffffff"
       sodipodi:nodetypes="ccccccccc" />
    <path
       d="m 146.59189,628.65551 c 1.6875,0.3 2.0625,1.2 1.1125,2.7125 -1.7125,-0.3 -2.0875,-1.2125 -1.1125,-2.7125 z"
       id="path3379"
       inkscape:connector-curvature="0"
       style="fill:#242627"
       sodipodi:nodetypes="ccc" />
    <path
       d="m 155.29189,633.66801 c 0.8,0.7625 0.8,0.7625 0,0 z"
       id="path3381"
       inkscape:connector-curvature="0"
       style="fill:#ffffff"
       sodipodi:nodetypes="cc" />
    <path
       d="m 187.46689,636.64301 c -1.1,-4.0125 4.125,0.4375 0,0 z"
       id="path3383"
       inkscape:connector-curvature="0"
       style="fill:#ffffff"
       sodipodi:nodetypes="cc" />
    <path
       d="m 143.05439,635.89301 c 1.725,-0.15 3.025,2.925 2.2125,4.3625 -1.9625,0.3375 -2.65,-2.9125 -2.2125,-4.3625 z"
       id="path3385"
       inkscape:connector-curvature="0"
       style="fill:#242627"
       sodipodi:nodetypes="ccc" />
    <path
       d="m 187.46689,636.64301 c 0.4,4.1125 -4.025,-1.1125 0,0 z"
       id="path3387"
       inkscape:connector-curvature="0"
       style="fill:#ffffff"
       sodipodi:nodetypes="cc" />
    <path
       d="m 154.16689,638.35551 c 0.7625,0.775 0.7625,0.775 0,0 z"
       id="path3389"
       inkscape:connector-curvature="0"
       style="fill:#ffffff"
       sodipodi:nodetypes="cc" />
    <path
       d="m 151.72939,639.73051 c 0.7875,0.6375 0.7875,0.6375 0,0 z"
       id="path3391"
       inkscape:connector-curvature="0"
       style="fill:#ffffff"
       sodipodi:nodetypes="cc" />
    <path
       d="m 210.61689,640.79301 c 0.4125,0.9125 0.4125,0.9125 0,0 z"
       id="path3393"
       inkscape:connector-curvature="0"
       style="fill:#ffffff"
       sodipodi:nodetypes="cc" />
  </g>
</svg>
